<?xml version="1.0" encoding="UTF-8"?>
<svg version="1.1" xmlns="http://www.w3.org/2000/svg" width="1536" height="1024">
<path d="M0 0 C506.88 0 1013.76 0 1536 0 C1536 337.92 1536 675.84 1536 1024 C1029.12 1024 522.24 1024 0 1024 C0 686.08 0 348.16 0 0 Z " fill="#111211" transform="translate(0,0)"/>
<path d="M0 0 C1.67092614 -0.00202713 3.34185111 -0.00536974 5.01277232 -0.00990558 C9.5807152 -0.01851596 14.14845323 -0.00852338 18.71637821 0.00463676 C23.65161094 0.01556838 28.58682547 0.00911649 33.52206421 0.00485229 C43.17973987 -0.0007724 52.83733591 0.00951675 62.49499801 0.02514026 C73.74292655 0.04269899 84.99083976 0.04409991 96.23877987 0.04475585 C116.30574917 0.04644277 136.37268225 0.06224502 156.43963623 0.08624268 C175.9116445 0.10951193 195.3836298 0.12366931 214.85565186 0.1272583 C216.05555029 0.12748107 217.25544872 0.12770384 218.49170771 0.12793335 C220.90893844 0.12837595 223.32616917 0.12881798 225.7433999 0.12925942 C226.93580182 0.12947899 228.12820374 0.12969855 229.35673904 0.12992477 C230.54613243 0.13014076 231.73552581 0.13035675 232.96096142 0.13057928 C251.52086936 0.13427992 270.08077359 0.14563846 288.64067747 0.15805517 C295.3671093 0.16248941 302.09354078 0.1659281 308.8199735 0.1686773 C319.48653411 0.17310973 330.15308105 0.18088369 340.81963304 0.19545171 C345.69337042 0.20205715 350.56709576 0.20712438 355.44083786 0.20791245 C359.90153137 0.20869965 364.36219442 0.214109 368.82287845 0.22323194 C370.43706284 0.22573892 372.05125087 0.22657377 373.66543689 0.22557315 C375.85928538 0.22447579 378.05303869 0.22950901 380.24687576 0.23606491 C381.46551103 0.23731141 382.68414629 0.23855791 383.9397099 0.23984218 C393.73495764 0.60256299 401.61426357 3.52775227 408.60955811 10.62139893 C415.12232883 18.79347429 417.53979353 25.77366663 417.52670956 36.15161324 C417.53113669 37.32283413 417.53113669 37.32283413 417.53565326 38.51771605 C417.5443409 41.1438502 417.5459246 43.7699403 417.54753113 46.39608765 C417.55226233 48.29409733 417.55741327 50.19210601 417.56294876 52.09011352 C417.57685661 57.31370325 417.58443893 62.537286 417.59092176 67.76088953 C417.59729287 72.23929276 417.6073629 76.71768454 417.61748242 81.19608064 C417.65080347 95.94973863 417.67232579 110.70340358 417.69068226 125.45708686 C417.69547734 129.29817541 417.70046064 133.13926367 417.70548749 136.98035192 C417.73645543 160.82990394 417.76314642 184.67945792 417.77990627 208.52902412 C417.78384339 214.05297984 417.78785527 219.5769355 417.79193115 225.10089111 C417.79243282 225.78716081 417.79293449 226.47343051 417.79345136 227.18049627 C417.80986844 249.42958229 417.84832546 271.67855833 417.89921826 293.92759025 C417.95293847 317.45562717 417.98462661 340.98357289 417.99210316 364.51167858 C417.99676703 377.33518842 418.01153576 390.15851614 418.05184746 402.98196793 C418.08613279 413.90163912 418.10009266 424.82109533 418.08742332 435.74081726 C418.08159331 441.31187218 418.08548524 446.88247232 418.11559296 452.45345879 C418.14294569 457.55632128 418.14246366 462.65840568 418.12008251 467.76128541 C418.11685883 469.6045342 418.12373223 471.44783501 418.14187973 473.29099728 C418.24993305 484.97649704 417.51670975 493.75259329 409.17490286 502.75454152 C397.62357399 514.03063025 383.56423138 514.66798652 368.24450684 514.63491821 C366.60020688 514.63865817 364.9559087 514.64326107 363.31161332 514.64864886 C358.80779698 514.66085149 354.30405507 514.66062163 349.80022597 514.65826011 C344.93709281 514.65785125 340.07398329 514.66889764 335.21086121 514.67837524 C325.68862171 514.69497103 316.16640697 514.70048414 306.64415422 514.7016 C298.90229481 514.70255112 291.16044356 514.70666458 283.41858673 514.71300125 C261.45793571 514.73060951 239.49730423 514.73984073 217.5366461 514.7383403 C215.7616853 514.73822043 215.7616853 514.73822043 213.9508667 514.73809814 C212.76611095 514.73801638 211.58135521 514.73793462 210.36069778 514.73785038 C191.16120174 514.73703752 171.96178417 514.75617628 152.76231083 514.78437488 C133.03759109 514.81311582 113.3129096 514.82691452 93.58816838 514.82518733 C82.51857136 514.82452386 71.44905659 514.8299972 60.37947845 514.85154343 C50.95463388 514.86977108 41.52990887 514.87408948 32.10505429 514.86052458 C27.29936517 514.85400307 22.49390533 514.85384825 17.68823814 514.87123108 C13.28253681 514.88700284 8.87724576 514.88405647 4.47155419 514.86666282 C2.88411739 514.86360195 1.29664965 514.86719064 -0.29075065 514.87838297 C-14.06819407 514.96903263 -26.29164844 513.27191411 -36.61309814 503.36749268 C-43.72172709 496.32135718 -46.70178488 488.92524105 -46.75181505 478.85440683 C-46.75033143 478.14288509 -46.7488478 477.43136334 -46.74731922 476.69828033 C-46.74967145 475.92988421 -46.75202368 475.16148809 -46.75444719 474.36980724 C-46.7611229 471.78589165 -46.7606794 469.20202651 -46.76026917 466.61810303 C-46.76356868 464.75039261 -46.76729443 462.88268291 -46.77141064 461.01497412 C-46.78142882 455.87505326 -46.78514715 450.73514408 -46.78779995 445.59521484 C-46.79170355 440.05443831 -46.80128186 434.51367102 -46.81001282 428.97290039 C-46.82977576 415.58808025 -46.83984327 402.20325936 -46.84874061 388.81842828 C-46.85312383 382.51517707 -46.85849055 376.21192669 -46.86372948 369.90867615 C-46.88074166 348.95500115 -46.89526064 328.00132632 -46.90247822 307.04764557 C-46.90295297 305.69274699 -46.90342886 304.3378484 -46.90390588 302.98294982 C-46.90414226 302.31105242 -46.90437863 301.63915502 -46.90462217 300.94689709 C-46.90582335 297.54282478 -46.90703881 294.13875248 -46.90826416 290.73468018 C-46.90850431 290.05913589 -46.90874446 289.38359161 -46.90899189 288.68757629 C-46.91688225 266.79201123 -46.94030878 244.89650038 -46.9728201 223.00095899 C-47.00714245 199.84339003 -47.02683048 176.68585148 -47.03012246 153.52825308 C-47.03228736 140.90816961 -47.04103318 128.28816583 -47.06658363 115.66810608 C-47.08829356 104.92016398 -47.09633956 94.17232092 -47.08661685 83.42435938 C-47.08207304 77.94226534 -47.08396336 72.46037563 -47.1033783 66.97830963 C-47.12101658 61.95443096 -47.12000664 56.93090559 -47.104481 51.90702313 C-47.10210597 50.09470134 -47.10642302 48.28235503 -47.11830965 46.47007066 C-47.19101492 34.64778567 -47.10804112 21.60595937 -39.20684814 11.92218018 C-27.81195992 0.80657843 -15.22288083 -0.08246679 0 0 Z " fill="#181111" transform="translate(968.6130981445313,264.63250732421875)"/>
<path d="M0 0 C1.67092614 -0.00202713 3.34185111 -0.00536974 5.01277232 -0.00990558 C9.5807152 -0.01851596 14.14845323 -0.00852338 18.71637821 0.00463676 C23.65161094 0.01556838 28.58682547 0.00911649 33.52206421 0.00485229 C43.17973987 -0.0007724 52.83733591 0.00951675 62.49499801 0.02514026 C73.74292655 0.04269899 84.99083976 0.04409991 96.23877987 0.04475585 C116.30574917 0.04644277 136.37268225 0.06224502 156.43963623 0.08624268 C175.9116445 0.10951193 195.3836298 0.12366931 214.85565186 0.1272583 C216.05555029 0.12748107 217.25544872 0.12770384 218.49170771 0.12793335 C220.90893844 0.12837595 223.32616917 0.12881798 225.7433999 0.12925942 C226.93580182 0.12947899 228.12820374 0.12969855 229.35673904 0.12992477 C230.54613243 0.13014076 231.73552581 0.13035675 232.96096142 0.13057928 C251.52086936 0.13427992 270.08077359 0.14563846 288.64067747 0.15805517 C295.3671093 0.16248941 302.09354078 0.1659281 308.8199735 0.1686773 C319.48653411 0.17310973 330.15308105 0.18088369 340.81963304 0.19545171 C345.69337042 0.20205715 350.56709576 0.20712438 355.44083786 0.20791245 C359.90153137 0.20869965 364.36219442 0.214109 368.82287845 0.22323194 C370.43706284 0.22573892 372.05125087 0.22657377 373.66543689 0.22557315 C375.85928538 0.22447579 378.05303869 0.22950901 380.24687576 0.23606491 C381.46551103 0.23731141 382.68414629 0.23855791 383.9397099 0.23984218 C393.73495764 0.60256299 401.61426357 3.52775227 408.60955811 10.62139893 C415.12232883 18.79347429 417.53979353 25.77366663 417.52670956 36.15161324 C417.53113669 37.32283413 417.53113669 37.32283413 417.53565326 38.51771605 C417.5443409 41.1438502 417.5459246 43.7699403 417.54753113 46.39608765 C417.55226233 48.29409733 417.55741327 50.19210601 417.56294876 52.09011352 C417.57685661 57.31370325 417.58443893 62.537286 417.59092176 67.76088953 C417.59729287 72.23929276 417.6073629 76.71768454 417.61748242 81.19608064 C417.65080347 95.94973863 417.67232579 110.70340358 417.69068226 125.45708686 C417.69547734 129.29817541 417.70046064 133.13926367 417.70548749 136.98035192 C417.73645543 160.82990394 417.76314642 184.67945792 417.77990627 208.52902412 C417.78384339 214.05297984 417.78785527 219.5769355 417.79193115 225.10089111 C417.79243282 225.78716081 417.79293449 226.47343051 417.79345136 227.18049627 C417.80986844 249.42958229 417.84832546 271.67855833 417.89921826 293.92759025 C417.95293847 317.45562717 417.98462661 340.98357289 417.99210316 364.51167858 C417.99676703 377.33518842 418.01153576 390.15851614 418.05184746 402.98196793 C418.08613279 413.90163912 418.10009266 424.82109533 418.08742332 435.74081726 C418.08159331 441.31187218 418.08548524 446.88247232 418.11559296 452.45345879 C418.14294569 457.55632128 418.14246366 462.65840568 418.12008251 467.76128541 C418.11685883 469.6045342 418.12373223 471.44783501 418.14187973 473.29099728 C418.24993305 484.97649704 417.51670975 493.75259329 409.17490286 502.75454152 C397.62357399 514.03063025 383.56423138 514.66798652 368.24450684 514.63491821 C366.60020688 514.63865817 364.9559087 514.64326107 363.31161332 514.64864886 C358.80779698 514.66085149 354.30405507 514.66062163 349.80022597 514.65826011 C344.93709281 514.65785125 340.07398329 514.66889764 335.21086121 514.67837524 C325.68862171 514.69497103 316.16640697 514.70048414 306.64415422 514.7016 C298.90229481 514.70255112 291.16044356 514.70666458 283.41858673 514.71300125 C261.45793571 514.73060951 239.49730423 514.73984073 217.5366461 514.7383403 C215.7616853 514.73822043 215.7616853 514.73822043 213.9508667 514.73809814 C212.76611095 514.73801638 211.58135521 514.73793462 210.36069778 514.73785038 C191.16120174 514.73703752 171.96178417 514.75617628 152.76231083 514.78437488 C133.03759109 514.81311582 113.3129096 514.82691452 93.58816838 514.82518733 C82.51857136 514.82452386 71.44905659 514.8299972 60.37947845 514.85154343 C50.95463388 514.86977108 41.52990887 514.87408948 32.10505429 514.86052458 C27.29936517 514.85400307 22.49390533 514.85384825 17.68823814 514.87123108 C13.28253681 514.88700284 8.87724576 514.88405647 4.47155419 514.86666282 C2.88411739 514.86360195 1.29664965 514.86719064 -0.29075065 514.87838297 C-14.06819407 514.96903263 -26.29164844 513.27191411 -36.61309814 503.36749268 C-43.72172709 496.32135718 -46.70178488 488.92524105 -46.75181505 478.85440683 C-46.75033143 478.14288509 -46.7488478 477.43136334 -46.74731922 476.69828033 C-46.74967145 475.92988421 -46.75202368 475.16148809 -46.75444719 474.36980724 C-46.7611229 471.78589165 -46.7606794 469.20202651 -46.76026917 466.61810303 C-46.76356868 464.75039261 -46.76729443 462.88268291 -46.77141064 461.01497412 C-46.78142882 455.87505326 -46.78514715 450.73514408 -46.78779995 445.59521484 C-46.79170355 440.05443831 -46.80128186 434.51367102 -46.81001282 428.97290039 C-46.82977576 415.58808025 -46.83984327 402.20325936 -46.84874061 388.81842828 C-46.85312383 382.51517707 -46.85849055 376.21192669 -46.86372948 369.90867615 C-46.88074166 348.95500115 -46.89526064 328.00132632 -46.90247822 307.04764557 C-46.90295297 305.69274699 -46.90342886 304.3378484 -46.90390588 302.98294982 C-46.90414226 302.31105242 -46.90437863 301.63915502 -46.90462217 300.94689709 C-46.90582335 297.54282478 -46.90703881 294.13875248 -46.90826416 290.73468018 C-46.90850431 290.05913589 -46.90874446 289.38359161 -46.90899189 288.68757629 C-46.91688225 266.79201123 -46.94030878 244.89650038 -46.9728201 223.00095899 C-47.00714245 199.84339003 -47.02683048 176.68585148 -47.03012246 153.52825308 C-47.03228736 140.90816961 -47.04103318 128.28816583 -47.06658363 115.66810608 C-47.08829356 104.92016398 -47.09633956 94.17232092 -47.08661685 83.42435938 C-47.08207304 77.94226534 -47.08396336 72.46037563 -47.1033783 66.97830963 C-47.12101658 61.95443096 -47.12000664 56.93090559 -47.104481 51.90702313 C-47.10210597 50.09470134 -47.10642302 48.28235503 -47.11830965 46.47007066 C-47.19101492 34.64778567 -47.10804112 21.60595937 -39.20684814 11.92218018 C-27.81195992 0.80657843 -15.22288083 -0.08246679 0 0 Z M-15.61309814 33.36749268 C-18.02510183 37.02630645 -17.86575341 40.32475475 -17.87036705 44.63648033 C-17.87387312 45.37374068 -17.8773792 46.11100103 -17.88099152 46.87060261 C-17.89033599 49.35461545 -17.88537441 51.83839542 -17.88052368 54.32241821 C-17.88425841 56.11588439 -17.88885921 57.90934893 -17.89425433 59.70281088 C-17.90652166 64.64189298 -17.90621948 69.58090754 -17.90386558 74.52000141 C-17.90345835 79.842533 -17.91448747 85.16504265 -17.92398071 90.48756409 C-17.94061191 100.91920922 -17.94609121 111.35083176 -17.94720547 121.78248905 C-17.9481549 130.25917714 -17.95225991 138.73585776 -17.95860672 147.21254349 C-17.97622455 171.23034556 -17.98544469 195.24812974 -17.98394577 219.26593833 C-17.98386586 220.56144345 -17.98378595 221.85694857 -17.98370361 223.19171143 C-17.98362185 224.48879298 -17.98354009 225.78587454 -17.98345585 227.1222616 C-17.98264269 248.15036197 -18.00178648 269.17839076 -18.02998035 290.20647041 C-18.05868209 311.78308791 -18.07252215 333.35967047 -18.07079279 354.93630755 C-18.07012798 367.05595142 -18.07566041 379.17552023 -18.0971489 391.29514694 C-18.11532502 401.6129301 -18.11973742 411.93060418 -18.10613005 422.24839638 C-18.09958247 427.51493685 -18.0995476 432.78126785 -18.11683655 438.04778862 C-18.13249331 442.86657303 -18.12977971 447.6849806 -18.11226828 452.50375541 C-18.10918202 454.24935853 -18.11289154 455.99498928 -18.12398843 457.74055986 C-18.13805542 460.10977341 -18.12756716 462.47765517 -18.11087608 464.84682274 C-18.11131082 466.16380288 -18.11174556 467.48078301 -18.11219347 468.83767164 C-17.33427299 474.33946651 -14.67126589 477.35533222 -10.73809814 481.11749268 C-5.67512639 484.76283234 -1.21455314 485.61691917 4.95376968 485.62755489 C6.26582233 485.63462048 7.57787497 485.64168608 8.92968678 485.64896578 C10.37898746 485.64671459 11.82828784 485.64426811 13.27758789 485.64164734 C14.82244207 485.646101 16.36729396 485.65141547 17.91214252 485.65751606 C22.15488809 485.67169107 26.3975604 485.67335945 30.64032626 485.67291915 C35.21715735 485.67456779 39.79395828 485.68763514 44.37077332 485.69911194 C54.37696826 485.7219569 64.38314199 485.72988191 74.38935947 485.73493838 C80.63792041 485.73819579 86.8864752 485.74471851 93.13503265 485.75193977 C110.43780443 485.77150453 127.74057048 485.78790964 145.04335403 485.79081631 C146.15048191 485.79100388 147.25760978 485.79119145 148.39828698 485.7913847 C150.64266984 485.79175095 152.88705269 485.79211465 155.13143554 485.79247581 C156.24553923 485.79265862 157.35964292 485.79284143 158.50750732 485.79302979 C160.18070396 485.79330061 160.18070396 485.79330061 161.88770255 485.7935769 C179.96426015 485.79711894 198.04069866 485.82414371 216.11721495 485.86152767 C234.67904327 485.89960795 253.24081248 485.91897376 271.80268073 485.91927582 C282.22335398 485.91986043 292.64388512 485.92835482 303.06452179 485.95727348 C311.93728393 485.98178351 320.80985213 485.98907273 329.68263897 485.97402596 C334.20850699 485.96685571 338.73399202 485.96771947 343.25981712 485.99043655 C347.40650993 486.01105098 351.55252589 486.00840356 355.69921157 485.98756171 C357.19584059 485.98407151 358.69251869 485.98895697 360.18908337 486.00326615 C370.06479395 486.0915733 377.37321123 485.08121436 385.30020195 478.8677873 C391.45695793 472.48258824 390.21453749 463.22823908 390.14207458 454.98297119 C390.1482745 453.19159433 390.15709321 451.40022495 390.16829997 449.60887241 C390.19139783 444.69386629 390.17709945 439.77957398 390.15659082 434.86458254 C390.1409588 429.56114038 390.15988212 424.25780592 390.1743927 418.95437622 C390.19722443 408.56797347 390.18773761 398.18183975 390.16689184 387.79544234 C390.15061113 379.35460569 390.14640748 370.91384249 390.15085793 362.47299194 C390.15180394 360.67132233 390.15180394 360.67132233 390.15276906 358.83325535 C390.15411511 356.39325545 390.15549468 353.95325557 390.15690742 351.51325572 C390.16884585 328.63063748 390.14477383 305.74816676 390.10788933 282.86558211 C390.07699621 263.22912243 390.07462517 243.5928326 390.09368896 223.95635986 C390.11579895 201.15592325 390.12194715 178.35558186 390.10136634 155.5551405 C390.09920339 153.12409148 390.09705429 150.69304245 390.0949192 148.26199341 C390.09331966 146.46778602 390.09331966 146.46778602 390.09168779 144.63733202 C390.08521697 136.20615096 390.08998567 127.77501889 390.09894371 119.34384155 C390.10947723 109.0697186 390.10198506 98.79579487 390.07148793 88.52170873 C390.05635511 83.27917043 390.04920126 78.03694665 390.06367874 72.79439926 C390.0766928 67.9953047 390.06662158 63.1968333 390.03812001 58.39781082 C390.03183995 56.66172418 390.03398068 54.92558241 390.04539045 53.18952191 C390.36075356 41.83797676 390.36075356 41.83797676 385.76326972 31.7443552 C380.67129384 26.6505493 376.09045592 25.24364231 369.09991741 25.23606491 C368.45667146 25.23401228 367.8134255 25.23195964 367.15068725 25.22984481 C364.98052034 25.22415963 362.8104166 25.22563392 360.64024353 25.22705078 C359.07450564 25.22446802 357.5087684 25.22145511 355.94303209 25.21804738 C351.62879247 25.20996375 347.31456947 25.20818705 343.00032318 25.20744991 C338.35195141 25.20560173 333.70358832 25.19805562 329.05522156 25.1913147 C318.88590036 25.17772142 308.7165831 25.17170518 298.54725432 25.16730404 C292.20041492 25.16454343 285.85357704 25.16030643 279.50673866 25.15579987 C261.94243942 25.14360615 244.37814139 25.13330688 226.81383801 25.12992477 C225.68926046 25.12970521 224.56468292 25.12948564 223.40602728 25.12925942 C222.2787241 25.12904114 221.15142092 25.12882287 219.98995703 25.12859797 C217.70552393 25.1281545 215.42109082 25.12770794 213.13665771 25.1272583 C212.00349447 25.12703687 210.87033122 25.12681544 209.7028297 25.1265873 C191.33565383 25.12263809 172.96851761 25.10518075 154.60135707 25.08189878 C135.75488472 25.05820157 116.90843228 25.04572368 98.06194478 25.04455686 C87.4759536 25.0436392 76.89001407 25.03786419 66.30403709 25.01973724 C57.29095568 25.00435829 48.27794189 24.99920275 39.26484986 25.00747535 C34.66465444 25.01138961 30.06459528 25.01041447 25.4644165 24.996418 C21.25443018 24.98372563 17.04468317 24.98483534 12.8346974 24.99700871 C11.31046203 24.99897382 9.78620997 24.99584987 8.26199808 24.98716435 C6.1915105 24.97611153 4.12187345 24.98353116 2.05140972 24.99555588 C0.32574183 24.99466025 0.32574183 24.99466025 -1.43478805 24.99374652 C-7.64050159 25.72349331 -11.57159198 28.76466621 -15.61309814 33.36749268 Z " fill="#2E1716" transform="translate(968.6130981445313,264.63250732421875)"/>
<path d="M0 0 C1.29924255 -0.00311998 2.59848509 -0.00623996 3.93709862 -0.00945449 C7.50031451 -0.01771512 11.06342169 -0.01371753 14.6266377 -0.00748205 C18.48631818 -0.00292225 22.34598107 -0.00995873 26.20565796 -0.01544189 C33.75034441 -0.02430068 41.2949909 -0.02242948 48.83967887 -0.01661661 C54.97670131 -0.01208556 61.1137126 -0.01149344 67.25073624 -0.01366425 C68.56480891 -0.01412394 68.56480891 -0.01412394 69.90542851 -0.01459293 C71.68556133 -0.01523243 73.46569416 -0.01588086 75.24582697 -0.01653811 C91.90997755 -0.02223129 108.57410606 -0.01569979 125.23825301 -0.00493738 C139.5086287 0.00399407 153.77897183 0.00244746 168.04934692 -0.0067749 C184.65393074 -0.01750088 201.25849525 -0.02167877 217.86308205 -0.01555037 C219.63699412 -0.01491334 221.41090619 -0.01428459 223.18481827 -0.01366425 C224.05742411 -0.01335569 224.93002995 -0.01304714 225.8290784 -0.01272924 C231.95123112 -0.01100904 238.0733715 -0.01390285 244.19552231 -0.01862335 C251.66728023 -0.02425825 259.13899618 -0.02266139 266.61074935 -0.01206186 C270.41630301 -0.00683956 274.22178694 -0.00468893 278.02733994 -0.01136017 C306.82675488 -0.05753294 333.47198 0.83097228 355.35159302 22.25396729 C358.27021395 25.76969585 360.83941133 29.44063321 363.35159302 33.25396729 C364.05928833 34.2381665 364.05928833 34.2381665 364.78128052 35.24224854 C375.64950458 51.00454865 375.65274473 70.03818763 375.62625122 88.37017822 C375.63060637 90.3740457 375.63579217 92.37791152 375.64173889 94.3817749 C375.65505501 99.7910839 375.65571574 105.20032271 375.65317559 110.60964489 C375.65210067 115.14193915 375.65700261 119.67421952 375.66178101 124.20651078 C375.67285105 134.90886377 375.67332798 145.61118166 375.66726685 156.3135376 C375.66123116 167.31583369 375.67353361 178.31800176 375.69483691 189.32027602 C375.71251199 198.8009884 375.71844492 208.28166024 375.71519917 217.76238847 C375.71339529 223.40947598 375.71593228 229.05647219 375.72991371 234.70354462 C375.74258365 240.01918106 375.74046215 245.33461953 375.72750282 250.6502533 C375.72515717 252.58786845 375.72779841 254.52549794 375.73612595 256.46309662 C375.84016914 282.57862752 371.04701015 303.01619164 352.35159302 322.25396729 C347.18102397 327.3551992 341.84515439 331.02840739 335.35159302 334.25396729 C334.54206177 334.68709229 333.73253052 335.12021729 332.89846802 335.56646729 C319.47266073 342.31956796 305.02830488 342.69049678 290.33816528 342.55938721 C288.59673837 342.5552946 286.85530756 342.55265257 285.11387634 342.55133057 C281.39921647 342.54616162 277.68473163 342.53231804 273.9701252 342.51183128 C268.08966589 342.48086822 262.20940051 342.4785205 256.32887268 342.4813385 C239.61959683 342.48563513 222.91056686 342.46205669 206.20144653 342.38800049 C196.94602859 342.34722234 187.69102294 342.33503875 178.43553013 342.35423738 C172.59511927 342.36476811 166.75625158 342.34037735 160.91606629 342.2898649 C157.28259487 342.2669188 153.64978978 342.27754772 150.016325 342.29758453 C148.33815771 342.30020323 146.65990291 342.28923201 144.98193359 342.26332283 C134.22331929 341.99497824 134.22331929 341.99497824 124.99720764 347.06349182 C123.73457023 348.41759306 122.51537001 349.81401364 121.35159302 351.25396729 C120.76206628 351.93852084 120.17253954 352.6230744 119.56514835 353.328372 C118.15875064 354.96862763 116.75490231 356.6110686 115.35159302 358.25396729 C114.69159302 358.25396729 114.03159302 358.25396729 113.35159302 358.25396729 C113.35159302 358.91396729 113.35159302 359.57396729 113.35159302 360.25396729 C111.77737427 361.76959229 111.77737427 361.76959229 109.66409302 363.50396729 C107.10524413 365.67293902 105.01222491 367.66120901 102.85159302 370.25396729 C100.88971052 372.60822628 99.17325289 374.33450875 96.86331177 376.27740479 C91.53649182 380.88405707 86.6186548 385.87888656 81.66409302 390.87896729 C80.74047974 391.80709229 79.81686646 392.73521729 78.86526489 393.69146729 C77.14900513 395.4163763 75.43378305 397.14231896 73.72000122 398.86968994 C72.15250581 400.44768811 70.58206863 402.02277002 69.00857544 403.5947876 C66.34263199 406.26293572 63.68773655 408.94168167 61.03445435 411.62240601 C58.21902454 414.46466215 55.39823035 417.30156933 52.57717896 420.13824463 C51.09166361 421.6338633 49.60794185 423.13126556 48.12600708 424.63043213 C45.97675923 426.80396258 43.82109537 428.97094807 41.66409302 431.13677979 C41.00562378 431.80557159 40.34715454 432.4743634 39.66873169 433.16342163 C34.76066919 438.07267202 30.68680979 441.6530463 23.46878052 442.32037354 C17.58070616 442.13569224 12.51498097 439.29490265 8.35159302 435.25396729 C6.27622096 431.95323771 6.05274869 429.22219907 5.93753052 425.35943604 C5.89877808 424.11919678 5.86002563 422.87895752 5.82009888 421.60113525 C5.78825795 420.21459454 5.757113 418.8280377 5.72659302 417.44146729 C5.69857101 416.38188812 5.69857101 416.38188812 5.66998291 415.30090332 C5.02832159 390.96204863 5.26348193 366.59860227 5.35159302 342.25396729 C4.73457016 342.26182251 4.1175473 342.26967773 3.48182678 342.277771 C0.63505425 342.30931474 -2.21168131 342.32857935 -5.05856323 342.34771729 C-6.51389465 342.36656982 -6.51389465 342.36656982 -7.99862671 342.38580322 C-28.36972221 342.48814911 -45.92123558 335.42713851 -60.64840698 321.25396729 C-77.48736471 303.76527485 -81.26785262 283.95172766 -81.15011597 260.67559814 C-81.15390584 258.52716214 -81.15941136 256.37872859 -81.16648865 254.2303009 C-81.18037236 248.43281601 -81.16932371 242.63563026 -81.15277743 236.83816218 C-81.13885601 230.75040795 -81.14539499 224.66266983 -81.14891052 218.5749054 C-81.15160685 208.35581685 -81.13818606 198.13684614 -81.11495972 187.91778564 C-81.08834661 176.12751237 -81.08660738 164.33743595 -81.09834808 152.54714292 C-81.10915168 141.17216105 -81.10291898 129.79724991 -81.0887928 118.42227364 C-81.08305612 113.59604774 -81.08309736 108.769874 -81.0878582 103.94364738 C-81.0926536 98.25453926 -81.08242057 92.5656449 -81.06090355 86.87657738 C-81.05537058 84.79699677 -81.05483802 82.71739548 -81.05985641 80.63781357 C-81.08921076 66.7217564 -80.69996984 53.78141411 -74.02340698 41.19146729 C-73.67423218 40.52155762 -73.32505737 39.85164795 -72.96530151 39.16143799 C-64.77208346 23.88066737 -52.89878766 11.80429226 -36.64840698 5.25396729 C-35.94844604 4.9613501 -35.24848511 4.66873291 -34.52731323 4.36724854 C-23.56930647 0.24542948 -11.56949294 -0.04353528 0 0 Z M-45.04293823 39.12896729 C-52.42061836 48.89407189 -56.12570385 58.49661927 -56.03608704 70.77250671 C-56.04147257 71.67575481 -56.04685811 72.57900291 -56.05240685 73.50962216 C-56.06660418 76.5071473 -56.05960314 79.50422569 -56.05245972 82.50177002 C-56.05816756 84.66271314 -56.06513342 86.82365324 -56.07325745 88.98458862 C-56.0911575 94.83376575 -56.09002643 100.6827926 -56.08431506 106.53198886 C-56.08121884 111.42259071 -56.08732045 116.31316388 -56.09335381 121.20376164 C-56.10738691 132.74436566 -56.10584766 144.28489563 -56.0944519 155.82550049 C-56.08297008 167.7157307 -56.09705036 179.60573536 -56.12384838 191.49593586 C-56.14602613 201.72044472 -56.15263811 211.9448829 -56.14677197 222.1694141 C-56.14340641 228.26909448 -56.14579109 234.36863027 -56.16302299 240.46829033 C-56.17852315 246.20497491 -56.17450223 251.94132603 -56.15571785 257.67799759 C-56.1520406 259.77777227 -56.1551151 261.87757183 -56.16560364 263.97732353 C-56.23197207 278.36754827 -55.04058328 289.15096473 -46.64840698 301.25396729 C-45.65840698 302.73896729 -45.65840698 302.73896729 -44.64840698 304.25396729 C-43.98840698 304.25396729 -43.32840698 304.25396729 -42.64840698 304.25396729 C-42.64840698 304.91396729 -42.64840698 305.57396729 -42.64840698 306.25396729 C-33.82198154 314.67153923 -23.73051877 317.3683861 -11.91012573 317.42974854 C-10.18550417 317.45294842 -8.46089476 317.47706583 -6.73629761 317.50201416 C-4.037403 317.53706474 -1.33895626 317.5664521 1.36013794 317.57989502 C3.97892488 317.5954645 6.59643047 317.63572411 9.21487427 317.67974854 C10.0109761 317.67784012 10.80707794 317.6759317 11.62730408 317.67396545 C17.04708409 317.79094118 22.08802831 318.68625418 26.35159302 322.25396729 C29.31166589 326.86155868 29.79452913 330.93151221 29.78396606 336.27886963 C29.79925354 337.45061234 29.79925354 337.45061234 29.81484985 338.64602661 C29.8448818 341.21072656 29.8542306 343.7750524 29.86331177 346.33990479 C29.88016575 348.12496167 29.89831696 349.91000673 29.91770935 351.69503784 C29.96513741 356.38029284 29.99499325 361.06549992 30.02114868 365.75091553 C30.05099055 370.53718528 30.09750842 375.32329005 30.14260864 380.10943604 C30.22855988 389.49086002 30.29594151 398.87231804 30.35159302 408.25396729 C32.38992726 406.98000838 34.39011428 405.64334806 36.35159302 404.25396729 C36.35159302 403.59396729 36.35159302 402.93396729 36.35159302 402.25396729 C37.31065552 401.85177979 37.31065552 401.85177979 38.28909302 401.44146729 C40.68290988 400.36728976 40.68290988 400.36728976 41.35159302 397.25396729 C42.68492635 396.58730062 44.01825968 395.92063395 45.35159302 395.25396729 C45.68159302 394.26396729 46.01159302 393.27396729 46.35159302 392.25396729 C47.31065552 391.78990479 47.31065552 391.78990479 48.28909302 391.31646729 C50.80628217 390.01973348 51.3204625 388.83179358 52.35159302 386.25396729 C53.01159302 386.25396729 53.67159302 386.25396729 54.35159302 386.25396729 C56.01825968 384.92063395 56.01825968 384.92063395 57.35159302 383.25396729 C57.35159302 382.59396729 57.35159302 381.93396729 57.35159302 381.25396729 C58.01159302 381.25396729 58.67159302 381.25396729 59.35159302 381.25396729 C59.35159302 380.59396729 59.35159302 379.93396729 59.35159302 379.25396729 C60.67159302 378.59396729 61.99159302 377.93396729 63.35159302 377.25396729 C63.35159302 376.59396729 63.35159302 375.93396729 63.35159302 375.25396729 C64.34159302 374.92396729 65.33159302 374.59396729 66.35159302 374.25396729 C66.35159302 373.59396729 66.35159302 372.93396729 66.35159302 372.25396729 C67.01159302 372.25396729 67.67159302 372.25396729 68.35159302 372.25396729 C69.86005453 370.72775853 69.86005453 370.72775853 71.35159302 368.81646729 C74.14820319 365.3556622 74.14820319 365.3556622 76.35159302 364.25396729 C76.35159302 363.59396729 76.35159302 362.93396729 76.35159302 362.25396729 C77.01159302 362.25396729 77.67159302 362.25396729 78.35159302 362.25396729 C79.90831763 360.72553657 79.90831763 360.72553657 81.5161438 358.73150635 C87.03982913 352.23999505 93.05797483 346.24778689 99.05715942 340.19830322 C100.50526886 338.73357133 101.94798303 337.26348597 103.38528442 335.78814697 C105.48426169 333.63414751 107.59945657 331.49730387 109.71878052 329.36334229 C110.35033051 328.70912292 110.98188049 328.05490356 111.63256836 327.38085938 C112.2499588 326.76631897 112.86734924 326.15177856 113.50344849 325.51861572 C114.03082611 324.98315125 114.55820374 324.44768677 115.1015625 323.89599609 C124.22499949 317.23788801 133.59766792 317.69760515 144.44070435 317.77154541 C146.27475779 317.76935712 148.10880984 317.76535669 149.94285583 317.75968933 C153.87973745 317.75114914 157.8163459 317.7548732 161.75321388 317.76811218 C167.98683651 317.78851659 174.22018623 317.77844162 180.45381165 317.76385498 C194.81426409 317.734868 209.1746354 317.74553576 223.53510284 317.75655365 C236.69358066 317.76624261 249.85191506 317.76743579 263.01036853 317.73667288 C269.19822984 317.72334651 275.38567823 317.72919233 281.57351458 317.75003815 C285.43422305 317.75906462 289.29477462 317.75151357 293.15546989 317.73962593 C294.93554346 317.73750675 296.715641 317.74214787 298.49567413 317.75433159 C312.89782031 317.84729282 325.10029757 316.1793525 336.35159302 306.25396729 C358.27108859 283.34847365 350.48318497 241.20952554 350.34985256 211.77193785 C350.33582312 208.61984952 350.32324268 205.46775852 350.31110382 202.31566238 C350.26838998 191.28790211 350.21922985 180.26019022 350.1645813 169.23248291 C350.11404093 158.99381518 350.07897701 148.75516887 350.0506475 138.51641786 C350.02541714 129.67070205 349.98882566 120.82507902 349.94356179 111.97944319 C349.91686927 106.71903906 349.89481466 101.45871766 349.88454437 96.19825363 C349.87458308 91.26814429 349.85046031 86.33830232 349.81561089 81.40830803 C349.80526159 79.60644277 349.79990222 77.80454047 349.80004311 76.00264549 C349.79629226 60.46721843 347.98302327 49.48827427 337.05862427 37.80084229 C329.51437324 30.55644225 320.40629429 25.15004153 309.74847126 25.10857296 C308.57497759 25.10164832 307.40148392 25.09472368 306.19242984 25.0875892 C304.89694176 25.08504509 303.60145367 25.08250097 302.26670837 25.07987976 C300.88133792 25.07371796 299.49596925 25.06714193 298.11060256 25.06018597 C294.29454629 25.04237458 290.47849334 25.03093699 286.66241038 25.02062929 C283.39115929 25.01099628 280.1199273 24.99768398 276.84868947 24.98436033 C265.12702973 24.93674852 253.40534288 24.90411255 241.68362427 24.87506104 C240.75810295 24.87275345 239.83258164 24.87044587 238.87901422 24.86806837 C220.49436277 24.82261246 202.10969933 24.78410095 183.72501087 24.75733852 C179.68167417 24.75134955 175.63833762 24.7452639 171.59500122 24.73907471 C170.5900669 24.73754173 169.58513258 24.73600874 168.5497457 24.73442931 C152.29083369 24.7087469 136.03218175 24.65189591 119.77340332 24.58260941 C103.07165201 24.51202504 86.37003483 24.47188674 69.66813678 24.46058899 C60.29449113 24.45344269 50.9212967 24.43281169 41.54780006 24.37756157 C33.55963352 24.33051023 25.57198614 24.31089765 17.58368603 24.32644307 C13.51249334 24.33352012 9.44241063 24.3279707 5.37139511 24.28686523 C-22.51553708 23.92619199 -22.51553708 23.92619199 -45.04293823 39.12896729 Z " fill="#172220" transform="translate(243.64840698242188,287.74603271484375)"/>
<path d="M0 0 C0.98546615 -0.00445784 1.97093231 -0.00891569 2.98626107 -0.01350862 C4.07679892 -0.01332426 5.16733676 -0.01313989 6.29092121 -0.01294994 C7.44333642 -0.01662663 8.59575163 -0.02030332 9.78308851 -0.02409142 C12.99170731 -0.03322957 16.20029606 -0.03783044 19.40892565 -0.04048073 C22.86577917 -0.04437975 26.32261782 -0.05395843 29.77946186 -0.0626936 C38.13319858 -0.08247051 46.48693654 -0.09252625 54.84069082 -0.10142139 C58.77327282 -0.10580271 62.70585348 -0.11116996 66.63843441 -0.11641026 C79.70934456 -0.13342457 92.78025387 -0.14791875 105.8511734 -0.155159 C109.24436348 -0.15706894 112.63755355 -0.15898926 116.0307436 -0.16094494 C117.29580881 -0.16167055 117.29580881 -0.16167055 118.58643088 -0.16241082 C132.24862037 -0.17071111 145.9107223 -0.19604709 159.57287356 -0.22852562 C173.59529632 -0.26158913 187.61767458 -0.27960716 201.64013654 -0.28280324 C209.5149181 -0.28496911 217.38957201 -0.29372885 225.26431561 -0.31926441 C231.97102268 -0.34096187 238.67757112 -0.34902663 245.38430931 -0.33929763 C248.80598967 -0.33474994 252.22734268 -0.33666576 255.64897823 -0.35605907 C259.36014462 -0.37368767 263.07047766 -0.36671515 266.78164387 -0.35352612 C267.86102811 -0.36449536 268.94041234 -0.37546461 270.0525052 -0.38676625 C277.43868016 -0.32329138 281.58208756 1.00038547 287.32429218 5.77153492 C292.55125612 12.08824919 292.1911327 18.53959518 292.08030415 26.45062733 C292.07926472 27.83489956 292.08030872 29.21917476 292.08332539 30.6034441 C292.0831468 33.49265581 292.06246854 36.38074137 292.02610493 39.26971912 C291.9806864 42.95737753 291.97965773 46.64339743 291.99314022 50.33125877 C291.99984905 53.18569257 291.98650638 56.03975836 291.96688175 58.89412212 C291.95553446 60.90971683 291.95803769 62.92537432 291.96082783 64.94099903 C291.83818164 72.88595199 291.28713018 77.93735197 285.72092915 83.87640858 C281.71682657 86.91617231 279.69740534 88.25800461 274.7102766 88.26844215 C273.72542715 88.2729 272.7405777 88.27735784 271.72588432 88.28195077 C270.09110073 88.28167423 270.09110073 88.28167423 268.42329121 88.2813921 C267.27158157 88.28506879 266.11987192 88.28874547 264.93326199 88.29253358 C261.7265738 88.30167176 258.51991568 88.30627261 255.31321669 88.30892289 C251.85838905 88.31282193 248.40357628 88.32240067 244.94875813 88.33113575 C236.5994655 88.35091342 228.25017164 88.36096887 219.90086144 88.36986354 C215.96990262 88.37424506 212.03894515 88.3796123 208.1079874 88.38485241 C195.04136847 88.40186741 181.97475038 88.41636115 168.90812206 88.42360115 C165.51597181 88.42551108 162.12382156 88.42743141 158.73167133 88.42938709 C157.46699959 88.4301127 157.46699959 88.4301127 156.17677893 88.43085297 C142.52173149 88.43915157 128.8667717 88.46448438 115.21176253 88.49696777 C101.194985 88.53004003 87.178252 88.54805014 73.16143525 88.55124539 C65.29053416 88.55341054 57.41976082 88.56215962 49.54889774 88.58770657 C42.84478108 88.60941602 36.14082318 88.6174629 29.43667535 88.60773978 C26.01689626 88.60319547 22.59744469 88.60508828 19.17771053 88.62450123 C15.46689451 88.64215178 11.75691008 88.63514636 8.04609394 88.62196827 C6.96962254 88.63293752 5.89315115 88.64390676 4.78405941 88.65520841 C-2.20560839 88.59526055 -7.9901303 87.61894377 -13.20190346 82.6515072 C-17.07934377 78.21867823 -17.7714072 74.86787209 -17.85499859 69.13739491 C-17.87428921 67.90213566 -17.89357983 66.66687641 -17.91345501 65.39418507 C-17.92826515 64.04321819 -17.94203811 62.69223961 -17.9548521 61.34125233 C-17.96142393 60.65893732 -17.96799576 59.97662231 -17.97476673 59.2736311 C-18.00733614 55.65939246 -18.03178868 52.04518293 -18.05128765 48.43085194 C-18.06906982 45.44994296 -18.10384017 42.46998556 -18.15382671 39.48944569 C-18.21426624 35.88079477 -18.24479516 32.27302279 -18.25446033 28.66388988 C-18.26297859 27.29439209 -18.28170704 25.92491548 -18.31120396 24.55570889 C-18.46633112 16.94287155 -18.38140997 11.44074614 -13.20547771 5.56517506 C-11.17358641 3.70043234 -9.1394938 2.31158226 -6.64625835 1.13422108 C-4.22729492 -0.07526064 -2.70321125 0.00565396 0 0 Z " fill="#311817" transform="translate(1017.646258354187,621.8657789230347)"/>
<path d="M0 0 C0.98883155 -0.00507454 1.9776631 -0.01014909 2.99645925 -0.0153774 C4.62250431 -0.01612404 4.62250431 -0.01612404 6.28139877 -0.01688576 C7.43481726 -0.02126801 8.58823575 -0.02565027 9.77660632 -0.03016531 C12.97877367 -0.04122134 16.18091346 -0.04777505 19.3830955 -0.05234647 C22.83652655 -0.05830924 26.28993967 -0.06991724 29.74335861 -0.08063698 C38.08291301 -0.10514314 46.42247334 -0.11978427 54.76205266 -0.13269705 C57.11767339 -0.13640989 59.47329354 -0.14038303 61.82891369 -0.14444971 C76.45937704 -0.16968404 91.08984135 -0.19173541 105.72032166 -0.20417786 C109.10801065 -0.2071075 112.4956996 -0.21006918 115.88338852 -0.21308327 C116.72537201 -0.21382932 117.5673555 -0.21457537 118.43485364 -0.21534403 C132.07686263 -0.22799983 145.71874135 -0.26122731 159.36068943 -0.3028851 C173.36848929 -0.34530934 187.37622244 -0.36887333 201.38408637 -0.37409842 C209.24828447 -0.37751168 217.11227888 -0.3892569 224.97641373 -0.42220116 C231.67318363 -0.45020941 238.36970806 -0.46119761 245.06653199 -0.4500057 C248.48234656 -0.44482119 251.89764712 -0.44769118 255.31338692 -0.47247124 C259.0198697 -0.49509555 262.72505646 -0.48689696 266.43154526 -0.47098732 C267.50665241 -0.48486941 268.58175957 -0.49875149 269.68944573 -0.51305425 C276.43256485 -0.44171378 280.89074641 0.76326111 286.1104393 5.13701439 C289.55590913 8.90549701 289.62616372 12.78559985 289.45809555 17.70342064 C288.76622539 22.54651177 286.24121611 25.14303861 282.68513012 28.26891041 C278.05977299 31.23711782 272.85617318 30.69170381 267.5403862 30.65167809 C265.78213553 30.66209638 265.78213553 30.66209638 263.98836464 30.67272514 C260.74298689 30.6878399 257.4981987 30.68505312 254.25282085 30.67457211 C250.74965188 30.66757573 247.24657633 30.68358134 243.74343491 30.69656944 C236.88377229 30.71820759 230.02427559 30.71808304 223.16459007 30.7099439 C217.58888026 30.703643 212.01321883 30.70478175 206.43750954 30.71121597 C205.64381486 30.71211763 204.85012018 30.71301928 204.03237415 30.71394826 C202.41996446 30.71579947 200.80755479 30.71766203 199.19514512 30.71953582 C184.07593463 30.73611371 168.95681745 30.72739527 153.83761256 30.71055024 C140.00750787 30.69585404 126.17762044 30.71048051 112.34754372 30.7393204 C98.14417039 30.76871799 83.94089731 30.77968559 69.73749489 30.7701382 C68.13072488 30.76911566 66.52395487 30.76812105 64.91718483 30.76715469 C64.12664009 30.7666783 63.33609536 30.76620191 62.52159472 30.76571109 C56.95382046 30.76354739 51.38614118 30.77334868 45.81838799 30.78792572 C39.03120926 30.80544756 32.24430751 30.80533407 25.45713968 30.78257407 C21.99488055 30.77143011 18.53310942 30.76827196 15.07087135 30.78687477 C11.31593829 30.80275454 7.56234536 30.78789912 3.80747604 30.76520348 C2.71525649 30.7770392 1.62303694 30.78887493 0.49771982 30.80106932 C-6.3022174 30.71743422 -9.82529198 29.76389717 -14.8895607 25.13701439 C-17.83893329 20.76052603 -18.45007867 17.36851542 -17.8895607 12.13701439 C-15.99697329 6.87982713 -13.32752526 4.30698907 -8.8895607 1.13701439 C-5.89695924 0.14019079 -3.14137176 0.00857478 0 0 Z " fill="#2D1716" transform="translate(1017.8895606994629,371.8629856109619)"/>
<path d="M0 0 C1.17131269 -0.00538554 2.34262538 -0.01077108 3.5494324 -0.01631981 C6.79698156 -0.02815235 10.04420206 -0.02652733 13.29175425 -0.019153 C16.79560642 -0.01442555 20.29940339 -0.02692747 23.80323792 -0.03717041 C30.66635726 -0.05437258 37.52938511 -0.05519543 44.39252041 -0.04995751 C49.9711077 -0.04591691 55.54966794 -0.04735805 61.12825394 -0.05270576 C61.9220841 -0.05345419 62.71591427 -0.05420261 63.53379989 -0.05497371 C65.14645111 -0.05650518 66.75910232 -0.05804353 68.37175353 -0.05958868 C83.49762076 -0.07331906 98.62343629 -0.06787245 113.74930234 -0.05640347 C127.58590685 -0.04647235 141.42237761 -0.05940867 155.25896148 -0.08333766 C169.46681342 -0.10772354 183.67460305 -0.11733768 197.8824755 -0.11068493 C205.85891904 -0.10719133 213.83525974 -0.10943393 221.81168747 -0.12693596 C228.60251383 -0.14165164 235.39316494 -0.14230186 242.18398784 -0.12486505 C245.6482054 -0.11634698 249.11210981 -0.11422471 252.57631111 -0.1295166 C256.33331634 -0.14266742 260.0894674 -0.13122973 263.84643555 -0.11352539 C265.48578806 -0.1279329 265.48578806 -0.1279329 267.1582588 -0.14263147 C273.51457685 -0.08090233 277.36777238 0.62572937 282.55020142 4.38768005 C285.60845769 7.64324318 285.78049521 10.57543497 285.92520142 14.88768005 C285.77397543 19.22670253 285.62730284 22.11825979 282.55020142 25.38768005 C276.31756231 30.57305014 270.8793465 31.10044826 262.96742249 31.00241089 C261.24336051 31.01093577 261.24336051 31.01093577 259.484469 31.01963288 C255.64199519 31.03252784 251.80057637 31.00975114 247.9581604 30.98704529 C245.19988774 30.98613739 242.44164462 30.99274226 239.68338013 30.99899292 C232.97498355 31.00964901 226.26690166 30.99374285 219.55855303 30.96885466 C211.74317561 30.94088702 203.92786142 30.93958154 196.11244226 30.93941165 C182.16657924 30.93822502 168.22086048 30.91327346 154.27505493 30.8747406 C140.74834462 30.83739002 127.22173919 30.81614444 113.69497681 30.81321716 C112.44504759 30.81294295 112.44504759 30.81294295 111.16986727 30.81266319 C110.33800927 30.81248422 109.50615128 30.81230525 108.64908546 30.81212085 C106.97411533 30.81175543 105.2991452 30.81138306 103.62417507 30.81100368 C102.38506312 30.81072541 102.38506312 30.81072541 101.1209186 30.81044152 C88.22141224 30.80686941 75.32192203 30.78841776 62.42243211 30.76851044 C57.75047412 30.76149404 53.07851996 30.75670778 48.40655785 30.75354909 C40.99596651 30.74849543 33.58544803 30.73704128 26.17489415 30.71224879 C22.7897161 30.70104372 19.40467078 30.6939708 16.01946449 30.69338226 C12.34821235 30.69212515 8.67720617 30.67858389 5.0059967 30.66183472 C3.93848708 30.6642498 2.87097746 30.66666489 1.77111906 30.66915315 C-6.93211412 30.60690257 -13.13213204 29.7053466 -19.44979858 23.38768005 C-21.74268586 19.4272384 -21.98573699 15.90487516 -21.44979858 11.38768005 C-16.83700898 1.03749512 -10.63491103 -0.05824535 0 0 Z " fill="#2F1816" transform="translate(1021.4497985839844,452.61231994628906)"/>
<path d="M0 0 C0.66242864 -0.00297112 1.32485727 -0.00594224 2.0073595 -0.0090034 C4.21349685 -0.01763279 6.41957957 -0.0191937 8.62573242 -0.02069092 C10.21292231 -0.02532298 11.80011109 -0.03034817 13.38729858 -0.03573608 C17.68886145 -0.04882009 21.99040873 -0.05529659 26.29198837 -0.05974674 C28.98060057 -0.06268245 31.66920854 -0.06678808 34.3578186 -0.07125092 C42.77370909 -0.08491202 51.18958988 -0.09458685 59.60549068 -0.09845281 C69.31435875 -0.10293769 79.02308632 -0.12051131 88.73191166 -0.1494534 C96.2428952 -0.17106581 103.75383917 -0.18115676 111.26485348 -0.18249393 C115.74861498 -0.18354178 120.23224417 -0.18944609 124.7159729 -0.20731354 C128.93164618 -0.22378778 133.14708753 -0.22595293 137.36278152 -0.21717453 C138.9083277 -0.21640395 140.45388633 -0.22074967 141.99940109 -0.23063278 C144.11234391 -0.24335065 146.22446487 -0.23747735 148.33740234 -0.22705078 C149.51872238 -0.22851734 150.70004242 -0.2299839 151.91716003 -0.2314949 C156.90219787 0.33873285 160.13220157 1.99188828 163.48120117 5.70294189 C166.61098796 10.22374503 166.64290733 13.74178721 166.16870117 19.14044189 C164.64766531 24.08380844 162.15937189 26.49671353 157.85101318 29.08094406 C152.00814866 31.38884198 145.52832745 30.83143859 139.33276367 30.78741455 C137.72881073 30.79419748 136.12486558 30.80310439 134.52093506 30.81396484 C130.18197137 30.83668484 125.84360466 30.82795232 121.50463104 30.81206942 C116.95465029 30.79937241 112.40471918 30.81116106 107.85473633 30.81900024 C100.21515772 30.82808577 92.57582113 30.81613777 84.9362793 30.79229736 C76.1155921 30.76508813 67.29548284 30.77390307 58.47480965 30.80142939 C50.8889733 30.8241508 43.30331049 30.82730575 35.7174511 30.81423604 C31.19225472 30.80645817 26.66732961 30.80535398 22.14215088 30.82191849 C17.8868441 30.83640829 13.63227929 30.82625998 9.37705231 30.7974472 C7.81946288 30.79086035 6.26181055 30.79269289 4.70424652 30.80376053 C-10.91575396 30.90448264 -10.91575396 30.90448264 -16.83129883 25.14044189 C-19.53194362 21.89397219 -20.72900554 18.85649489 -21.33129883 14.64044189 C-20.59649232 9.49679632 -18.68515071 5.99429378 -14.95629883 2.26544189 C-10.3497772 -0.17330485 -5.10443407 0.01285339 0 0 Z " fill="#301816" transform="translate(1020.831298828125,532.8595581054688)"/>
<path d="M0 0 C8.28989489 6.75587696 12.1252197 14.86437708 13.65234375 25.390625 C13.73420533 28.84927695 13.32961688 32.00425934 12.65234375 35.390625 C12.47445312 36.58945312 12.47445312 36.58945312 12.29296875 37.8125 C10.35335815 47.04034437 3.50324252 54.14086205 -4.140625 59.26171875 C-13.43626989 63.78773619 -24.25668756 63.98066205 -34.1484375 61.3984375 C-43.76200882 57.89269575 -50.8268047 52.64983245 -55.359375 43.3046875 C-59.29870877 33.27379859 -59.21841566 24.35941799 -55.61328125 14.29296875 C-51.72780468 5.38275551 -45.03741435 -0.45874797 -36.47265625 -4.8125 C-24.24028344 -9.3996398 -10.58832594 -7.25855289 0 0 Z " fill="#1B2825" transform="translate(517.34765625,431.609375)"/>
<path d="M0 0 C6.36552414 4.92453735 11.09625037 12.65927323 12.66015625 20.55859375 C13.95744964 31.96222111 12.27784408 41.0958719 5.90234375 50.6875 C4.3671875 52.44921875 4.3671875 52.44921875 2.90234375 53.6875 C2.24234375 53.6875 1.58234375 53.6875 0.90234375 53.6875 C0.90234375 54.3475 0.90234375 55.0075 0.90234375 55.6875 C-9.64408237 62.33412225 -18.7079158 64.43785959 -31.09765625 62.6875 C-34.78696651 61.81019218 -37.82842916 60.59245348 -41.09765625 58.6875 C-42.04125 58.17896484 -42.04125 58.17896484 -43.00390625 57.66015625 C-50.16516448 53.24718791 -55.39396377 45.1807184 -57.66015625 37.1640625 C-59.28876223 27.94498939 -58.51598911 19.9460661 -54.09765625 11.6875 C-53.46150391 10.49640625 -53.46150391 10.49640625 -52.8125 9.28125 C-47.52644412 0.44661622 -39.84745017 -3.72125458 -30.09765625 -6.3125 C-29.46472656 -6.50457031 -28.83179688 -6.69664062 -28.1796875 -6.89453125 C-18.38803261 -8.86021056 -8.2116926 -5.1380423 0 0 Z " fill="#1B2825" transform="translate(413.09765625,431.3125)"/>
<path d="M0 0 C7.47249896 6.05347895 11.24851889 12.74475593 12.75 22.25 C13.77086972 32.71076376 11.99084971 40.67195889 6.125 49.375 C4.949375 50.798125 4.949375 50.798125 3.75 52.25 C3.09 52.25 2.43 52.25 1.75 52.25 C1.75 52.91 1.75 53.57 1.75 54.25 C-0.19140625 55.6875 -0.19140625 55.6875 -2.8125 57.25 C-3.65941406 57.765625 -4.50632812 58.28125 -5.37890625 58.8125 C-13.98165104 63.1197246 -23.7335103 63.5837321 -33.09375 61.66796875 C-43.61567567 58.02192172 -51.21210545 49.43428533 -56 39.6875 C-58.95895471 31.12124438 -57.93546211 21.98421914 -54.50390625 13.74609375 C-50.23350496 5.24520146 -43.16734686 -2.0703513 -34.25 -5.75 C-21.69448508 -8.43799007 -10.60041209 -7.32028458 0 0 Z " fill="#1B2825" transform="translate(310.25,431.75)"/>
</svg>
