<?xml version="1.0" encoding="UTF-8"?>
<svg version="1.1" xmlns="http://www.w3.org/2000/svg" width="1536" height="1024">
<path d="M0 0 C506.88 0 1013.76 0 1536 0 C1536 337.92 1536 675.84 1536 1024 C1029.12 1024 522.24 1024 0 1024 C0 686.08 0 348.16 0 0 Z " fill="#F27E6F" transform="translate(0,0)"/>
<path d="M0 0 C253.11 0 506.22 0 767 0 C767 337.92 767 675.84 767 1024 C513.89 1024 260.78 1024 0 1024 C0 686.08 0 348.16 0 0 Z " fill="#87DDBA" transform="translate(0,0)"/>
<path d="M0 0 C10.73259321 -0.07621641 19.43092548 3.5310995 27.12222219 11.02400959 C33.61211069 18.1258832 36.59425323 25.54822766 36.49974561 35.18286026 C36.50410593 35.96773491 36.50846625 36.75260956 36.51295871 37.5612683 C36.52388057 40.1832989 36.5135074 42.80479986 36.50317311 45.42682636 C36.50663089 47.32885227 36.51139626 49.23087617 36.51735485 51.13289589 C36.52987805 56.3536257 36.52368838 61.57419099 36.51439619 66.7949214 C36.50761144 72.4276004 36.51808412 78.06025101 36.52633595 83.69292438 C36.53968184 94.7252939 36.53679164 105.75760222 36.52809803 116.78997415 C36.52132493 125.75614987 36.52040315 134.72230843 36.52366948 143.68848598 C36.52412918 144.96424509 36.52458888 146.24000419 36.52506251 147.55442267 C36.52602168 150.14605582 36.52699432 152.73768896 36.52798028 155.32932211 C36.53629281 178.94336924 36.5276697 202.55737536 36.51195249 226.1714156 C36.49771754 247.72231442 36.49898828 269.27316006 36.51333547 290.82405841 C36.52940446 315.04217709 36.53571108 339.26025795 36.52649868 363.47838348 C36.52554302 366.06082812 36.52459991 368.64327277 36.52366948 371.22571743 C36.52320665 372.49634595 36.52274383 373.76697447 36.52226698 375.07610689 C36.51967643 384.0312921 36.52404952 392.98645844 36.53110814 401.94164073 C36.53952139 412.85541005 36.5372467 423.76911463 36.52126591 434.68287652 C36.51338065 440.25154106 36.51029602 445.82009766 36.52021337 451.3887614 C36.52915543 456.48690385 36.52423528 461.58483835 36.50828071 466.68296195 C36.50493084 468.52674484 36.50663159 470.37054532 36.51390807 472.2143169 C36.5594226 484.70583073 36.17264886 496.3667839 27.21597219 506.09432209 C19.29232324 513.65526879 11.05839129 516.63246409 0.18398976 516.57189167 C-0.76831995 516.58242199 -1.72062966 516.59295231 -2.70179725 516.60380173 C-5.87911541 516.63398303 -9.05579503 516.63596618 -12.23324656 516.63777912 C-14.536511 516.65332665 -16.83976488 516.67050814 -19.14300609 516.68918216 C-25.45205608 516.73486735 -31.76096104 516.75501801 -38.07014918 516.77009714 C-42.09460765 516.78190816 -46.11896201 516.80070735 -50.1433723 516.82302463 C-50.81952867 516.82675903 -51.49568505 516.83049343 -52.19233102 516.834341 C-53.57081653 516.84196289 -54.94930203 516.84958646 -56.32778752 516.85721166 C-74.07749247 516.95341595 -91.82723531 516.99185956 -109.57715869 517.02023995 C-111.8717574 517.02399972 -114.16635543 517.02804579 -116.46095347 517.03219402 C-155.64704406 517.10287234 -194.8325583 517.08548604 -234.0185554 516.97386539 C-237.2053534 516.96483012 -240.39215151 516.95583176 -243.57894969 516.94686115 C-244.36892809 516.94462088 -245.15890648 516.94238061 -245.97282362 516.94007245 C-259.07213369 516.90342502 -272.17138341 516.88883535 -285.27073944 516.88210367 C-298.98628889 516.87471039 -312.70170265 516.84869941 -326.41718268 516.80415535 C-334.01583718 516.77992334 -341.61431669 516.76347672 -349.21301341 516.76842105 C-355.58890273 516.77252824 -361.96447391 516.75979434 -368.34027398 516.72485988 C-371.57487246 516.70764246 -374.80886638 516.70102997 -378.04351115 516.71087062 C-381.55040356 516.72024815 -385.05583629 516.69890074 -388.56259227 516.66997516 C-389.57083836 516.6799663 -390.57908444 516.68995744 -391.61788344 516.70025134 C-401.21784156 516.55790309 -409.02960847 512.67705771 -416.05355906 506.18025959 C-424.03424345 496.7469881 -425.01845185 486.66194793 -425.08310008 474.85677326 C-425.09299968 473.73398975 -425.10289927 472.61120624 -425.11309886 471.45439899 C-425.14488628 467.70028027 -425.16966795 463.94615111 -425.19418406 460.19197834 C-425.21486546 457.49587454 -425.23585331 454.79977453 -425.25715709 452.10367572 C-425.30161641 446.37930585 -425.34219202 440.65491811 -425.38046336 434.93050373 C-425.41826974 429.28072945 -425.45958899 423.63099956 -425.50546336 417.98128498 C-425.93744738 364.66237033 -425.95523482 311.34438471 -425.87777781 258.02400959 C-425.87610024 256.86735089 -425.87442266 255.7106922 -425.87269425 254.51898324 C-425.82678885 223.49781019 -425.75271304 192.47679009 -425.64205146 161.45577896 C-425.59650203 148.61638768 -425.55699722 135.77703173 -425.53134227 122.9375838 C-425.50837304 111.44282921 -425.47510121 99.9481606 -425.42907625 88.45347428 C-425.40535679 82.45126378 -425.38648321 76.44913639 -425.38016391 70.44688022 C-425.37412455 64.88223979 -425.35416749 59.31782284 -425.3235023 53.75326526 C-425.31474304 51.72599704 -425.3109951 49.69869967 -425.31276965 47.6714133 C-425.32901591 20.5582236 -425.32901591 20.5582236 -416.12387156 11.25057209 C-409.0889371 4.72501643 -402.03679296 0.90685746 -392.34929538 0.88534439 C-391.67993423 0.88250217 -391.01057309 0.87965995 -390.32092828 0.8767316 C-388.06190158 0.86836231 -385.80292602 0.86711463 -383.54388499 0.8657912 C-381.91428787 0.8612273 -380.28469193 0.85622753 -378.65509737 0.85082763 C-374.16423028 0.83721626 -369.67337079 0.82981942 -365.18248844 0.82340097 C-360.34386895 0.81540961 -355.50526532 0.80170697 -350.66665721 0.78868854 C-342.2771397 0.76690404 -333.8876206 0.7487661 -325.49808955 0.73308361 C-313.35834332 0.71038708 -301.21861456 0.682242 -289.07888313 0.65276433 C-269.37139353 0.60506104 -249.66389675 0.56180925 -229.9563911 0.52132404 C-210.8313853 0.48202623 -191.70638604 0.44060314 -172.5813911 0.39632404 C-171.40441765 0.39359977 -170.2274442 0.39087549 -169.01480488 0.38806867 C-163.10914464 0.37438681 -157.2034845 0.36066564 -151.29782438 0.34692836 C-115.22284175 0.26307256 -79.14785349 0.18206466 -43.07285357 0.10599637 C-40.23220748 0.09999802 -37.39156147 0.09396612 -34.55091548 0.08792675 C-30.16506214 0.07861298 -25.7792086 0.06940569 -21.39335485 0.06029011 C-19.80850343 0.05698534 -18.22365207 0.05365161 -16.63880078 0.05028563 C-15.89672186 0.04871317 -15.15464293 0.04714071 -14.39007676 0.0455206 C-13.32109967 0.04322395 -13.32109967 0.04322395 -12.23052708 0.04088089 C-10.25383584 0.03701462 -8.27714227 0.03440136 -6.30044889 0.03184962 C-4.20027794 0.02703893 -2.10010338 0.01752137 0 0 Z " fill="#F27F70" transform="translate(1348.877777814865,262.97599041461945)"/>
<path d="M0 0 C1.15406644 -0.00384115 2.30813289 -0.00768229 3.49717104 -0.01163983 C5.38469672 -0.01034011 5.38469672 -0.01034011 7.31035423 -0.00901413 C8.66816523 -0.01159969 10.02597546 -0.01461339 11.38378465 -0.01801753 C15.10958439 -0.02606837 18.83536484 -0.02787603 22.56117225 -0.028615 C26.581789 -0.0304689 30.60239583 -0.03801796 34.62300682 -0.04475021 C43.41243176 -0.05832062 52.20185213 -0.06435629 60.9912858 -0.06876087 C66.48204615 -0.07152558 71.97280475 -0.07576336 77.46356392 -0.08026505 C92.67321283 -0.09245622 107.88286034 -0.10275571 123.09251404 -0.10614014 C124.06559628 -0.1063597 125.03867852 -0.10657927 126.04124811 -0.10680549 C127.01662683 -0.10702377 127.99200555 -0.10724204 128.99694121 -0.10746694 C130.97335029 -0.1079104 132.94975936 -0.10835696 134.92616844 -0.10880661 C135.90653058 -0.10902804 136.88689272 -0.10924947 137.89696281 -0.10947761 C153.7767513 -0.11342431 169.65649386 -0.1308751 185.53626461 -0.15416613 C201.84937335 -0.17789912 218.16245906 -0.19034288 234.47558534 -0.19150805 C243.63090795 -0.19242374 252.78617073 -0.19814918 261.94147682 -0.21632767 C269.73853795 -0.23175497 277.53552074 -0.23683364 285.33259423 -0.22858956 C289.30775466 -0.22469231 293.28275746 -0.22556723 297.25789833 -0.23964691 C300.90371177 -0.25244155 304.54925004 -0.25114002 308.1950634 -0.2390562 C310.12450984 -0.23619288 312.0539613 -0.2479927 313.98336947 -0.26047826 C328.4547258 -0.17895058 341.12058077 3.09410793 351.82900047 13.13142776 C361.70653862 23.49934015 365.29185144 34.00180232 365.28867149 48.20654678 C365.29234818 49.09835893 365.29602487 49.99017109 365.29981297 50.90900785 C365.31079183 53.88574165 365.31468373 56.86244047 365.31850243 59.83919144 C365.32477137 61.97836288 365.33141856 64.11753324 365.33841515 66.25670242 C365.35940374 73.27092615 365.36981156 80.28514997 365.37978172 87.29939651 C365.38383099 89.71831969 365.38794797 92.13724275 365.39213181 94.5561657 C365.41117075 105.92045767 365.42540543 117.28474319 365.43374377 128.64904803 C365.44351656 141.7503815 365.4698428 154.85154605 365.51024467 167.95282 C365.54043378 178.0914951 365.55521525 188.23012183 365.55852479 198.36884099 C365.5608717 204.41887597 365.56978614 210.4687302 365.59498596 216.51871681 C365.61832101 222.21265679 365.62247794 227.90629767 365.61222458 233.60027313 C365.61173046 235.68351043 365.61801399 237.76676274 365.63178062 239.84995461 C365.74400411 257.84657081 363.10472586 271.95821665 350.32900047 285.50642776 C345.92218327 289.72825115 341.87096968 292.1811687 336.14150047 294.13142776 C334.94500783 294.6292693 333.74851519 295.12711084 332.51576519 295.64003849 C328.22281309 297.24805996 324.30978956 297.67186513 319.7548275 297.81006241 C318.5862291 297.85970336 318.5862291 297.85970336 317.39402264 297.91034716 C309.04095587 298.23592906 300.68650543 298.27644739 292.32826805 298.27327347 C290.63255792 298.27631634 288.9368486 298.27984083 287.24114037 298.28380203 C283.63189992 298.29159775 280.02266892 298.2967997 276.41342163 298.3000927 C270.70138813 298.30607319 264.9894146 298.32267235 259.27741051 298.34143448 C257.31207946 298.34776862 255.34674838 298.35409428 253.38141727 298.36041164 C251.90701634 298.36516036 251.90701634 298.36516036 250.40282953 298.37000501 C237.13335656 298.41192341 223.86391636 298.44511862 210.59438133 298.4573555 C201.59976228 298.46573447 192.60529716 298.48820047 183.61075515 298.52671117 C178.86388495 298.54644083 174.11724464 298.55888573 169.37033081 298.55387688 C164.91718597 298.54923276 160.46447955 298.56302251 156.01142311 298.59088898 C154.38084223 298.5977988 152.75021599 298.59792954 151.11963654 298.59068871 C148.88920708 298.58178505 146.6602195 298.59751462 144.42990685 298.61917496 C142.56101154 298.62275749 142.56101154 298.62275749 140.65436077 298.62641239 C133.82430444 299.60831408 129.39172944 303.51937445 124.70400047 308.44392776 C121.71325631 311.56838627 118.72672649 314.5257391 115.44008446 317.33723831 C111.25167699 320.98399174 107.32350311 324.83753941 103.42275047 328.78767776 C102.72057396 329.4936409 102.01839745 330.19960403 101.29494286 330.92695999 C99.07465444 333.15934134 96.85766093 335.39494888 94.64150047 337.63142776 C91.71740568 340.58233155 88.78986991 343.5297598 85.86025047 346.47517776 C85.20480247 347.1389241 84.54935448 347.80267044 83.87404442 348.4865303 C80.04264802 352.33788063 76.08975007 355.97130049 71.97743797 359.52034378 C69.51509749 361.68111304 67.20663958 363.97095149 64.90712547 366.30330276 C64.00349266 367.21466995 63.09985985 368.12603714 62.16884422 369.06502151 C60.77112072 370.48240357 59.37340103 371.89978943 57.97597313 373.31746292 C56.60092624 374.71062134 55.2228131 376.10075126 53.84462547 377.49080276 C53.03670555 378.31032425 52.22878563 379.12984573 51.39638329 379.9742012 C46.00569242 385.13142776 46.00569242 385.13142776 42.14150047 385.13142776 C42.15482414 383.68562836 42.15482414 383.68562836 42.16841698 382.21062088 C42.24957603 373.11797926 42.30950095 364.02541132 42.34874916 354.9324894 C42.36960564 350.25792571 42.39788771 345.58365492 42.44325829 340.9092598 C42.48678543 336.39643991 42.51065217 331.88390139 42.52100945 327.37088776 C42.52838851 325.65091016 42.54279826 323.9309476 42.5644207 322.21109009 C42.59354676 319.79796956 42.59745275 317.38600497 42.59560204 314.97273636 C42.60998314 314.26495041 42.62436424 313.55716446 42.63918114 312.82793045 C42.59767222 307.81128122 41.2990331 304.98477794 38.14150047 301.13142776 C32.84517501 297.60054412 27.00990597 297.9810571 20.81337547 297.92049026 C19.19227177 297.8924132 17.57117816 297.86374868 15.95009422 297.83455276 C13.42487024 297.79345243 10.89983286 297.75651505 8.37441063 297.73006058 C-7.23086618 297.55290144 -19.5032756 295.91446674 -31.41318703 284.73299026 C-40.5277256 275.02077703 -45.34356679 264.11198588 -45.24617958 250.7466011 C-45.25156512 249.84561857 -45.25695066 248.94463603 -45.26249939 248.01635098 C-45.27671913 245.02038815 -45.26968999 242.02487091 -45.26255226 239.0288887 C-45.26825905 236.87133811 -45.27522451 234.71379055 -45.28334999 232.55624771 C-45.30126496 226.7110092 -45.30011576 220.86592096 -45.29440761 215.02066326 C-45.29131251 210.13278543 -45.29741199 205.24493632 -45.30344635 200.35706258 C-45.31748534 188.81974975 -45.31593626 177.28251098 -45.30454445 165.7451973 C-45.29307149 153.86354816 -45.30712665 141.98212495 -45.33394092 130.10050559 C-45.35613422 119.88193037 -45.36272689 109.66342587 -45.35686451 99.44482827 C-45.35350151 93.34954052 -45.35586605 87.25439747 -45.37311554 81.1591301 C-45.38863972 75.42327346 -45.38456832 69.68774994 -45.36581039 63.9519062 C-45.36213926 61.854585 -45.36518958 59.75723882 -45.37569618 57.65994072 C-45.4424742 43.21997854 -44.93283648 30.13297018 -35.85849953 18.13142776 C-35.42924171 17.53974808 -34.9999839 16.94806839 -34.55771828 16.33845901 C-25.95306125 5.35843188 -13.77771242 0.01728314 0 0 Z " fill="#A0E6CA" transform="translate(229.85849952697754,309.8685722351074)"/>
<path d="M0 0 C10.73259321 -0.07621641 19.43092548 3.5310995 27.12222219 11.02400959 C33.61211069 18.1258832 36.59425323 25.54822766 36.49974561 35.18286026 C36.50410593 35.96773491 36.50846625 36.75260956 36.51295871 37.5612683 C36.52388057 40.1832989 36.5135074 42.80479986 36.50317311 45.42682636 C36.50663089 47.32885227 36.51139626 49.23087617 36.51735485 51.13289589 C36.52987805 56.3536257 36.52368838 61.57419099 36.51439619 66.7949214 C36.50761144 72.4276004 36.51808412 78.06025101 36.52633595 83.69292438 C36.53968184 94.7252939 36.53679164 105.75760222 36.52809803 116.78997415 C36.52132493 125.75614987 36.52040315 134.72230843 36.52366948 143.68848598 C36.52412918 144.96424509 36.52458888 146.24000419 36.52506251 147.55442267 C36.52602168 150.14605582 36.52699432 152.73768896 36.52798028 155.32932211 C36.53629281 178.94336924 36.5276697 202.55737536 36.51195249 226.1714156 C36.49771754 247.72231442 36.49898828 269.27316006 36.51333547 290.82405841 C36.52940446 315.04217709 36.53571108 339.26025795 36.52649868 363.47838348 C36.52554302 366.06082812 36.52459991 368.64327277 36.52366948 371.22571743 C36.52320665 372.49634595 36.52274383 373.76697447 36.52226698 375.07610689 C36.51967643 384.0312921 36.52404952 392.98645844 36.53110814 401.94164073 C36.53952139 412.85541005 36.5372467 423.76911463 36.52126591 434.68287652 C36.51338065 440.25154106 36.51029602 445.82009766 36.52021337 451.3887614 C36.52915543 456.48690385 36.52423528 461.58483835 36.50828071 466.68296195 C36.50493084 468.52674484 36.50663159 470.37054532 36.51390807 472.2143169 C36.5594226 484.70583073 36.17264886 496.3667839 27.21597219 506.09432209 C19.29232324 513.65526879 11.05839129 516.63246409 0.18398976 516.57189167 C-0.76831995 516.58242199 -1.72062966 516.59295231 -2.70179725 516.60380173 C-5.87911541 516.63398303 -9.05579503 516.63596618 -12.23324656 516.63777912 C-14.536511 516.65332665 -16.83976488 516.67050814 -19.14300609 516.68918216 C-25.45205608 516.73486735 -31.76096104 516.75501801 -38.07014918 516.77009714 C-42.09460765 516.78190816 -46.11896201 516.80070735 -50.1433723 516.82302463 C-50.81952867 516.82675903 -51.49568505 516.83049343 -52.19233102 516.834341 C-53.57081653 516.84196289 -54.94930203 516.84958646 -56.32778752 516.85721166 C-74.07749247 516.95341595 -91.82723531 516.99185956 -109.57715869 517.02023995 C-111.8717574 517.02399972 -114.16635543 517.02804579 -116.46095347 517.03219402 C-155.64704406 517.10287234 -194.8325583 517.08548604 -234.0185554 516.97386539 C-237.2053534 516.96483012 -240.39215151 516.95583176 -243.57894969 516.94686115 C-244.36892809 516.94462088 -245.15890648 516.94238061 -245.97282362 516.94007245 C-259.07213369 516.90342502 -272.17138341 516.88883535 -285.27073944 516.88210367 C-298.98628889 516.87471039 -312.70170265 516.84869941 -326.41718268 516.80415535 C-334.01583718 516.77992334 -341.61431669 516.76347672 -349.21301341 516.76842105 C-355.58890273 516.77252824 -361.96447391 516.75979434 -368.34027398 516.72485988 C-371.57487246 516.70764246 -374.80886638 516.70102997 -378.04351115 516.71087062 C-381.55040356 516.72024815 -385.05583629 516.69890074 -388.56259227 516.66997516 C-389.57083836 516.6799663 -390.57908444 516.68995744 -391.61788344 516.70025134 C-401.21784156 516.55790309 -409.02960847 512.67705771 -416.05355906 506.18025959 C-424.03424345 496.7469881 -425.01845185 486.66194793 -425.08310008 474.85677326 C-425.09299968 473.73398975 -425.10289927 472.61120624 -425.11309886 471.45439899 C-425.14488628 467.70028027 -425.16966795 463.94615111 -425.19418406 460.19197834 C-425.21486546 457.49587454 -425.23585331 454.79977453 -425.25715709 452.10367572 C-425.30161641 446.37930585 -425.34219202 440.65491811 -425.38046336 434.93050373 C-425.41826974 429.28072945 -425.45958899 423.63099956 -425.50546336 417.98128498 C-425.93744738 364.66237033 -425.95523482 311.34438471 -425.87777781 258.02400959 C-425.87610024 256.86735089 -425.87442266 255.7106922 -425.87269425 254.51898324 C-425.82678885 223.49781019 -425.75271304 192.47679009 -425.64205146 161.45577896 C-425.59650203 148.61638768 -425.55699722 135.77703173 -425.53134227 122.9375838 C-425.50837304 111.44282921 -425.47510121 99.9481606 -425.42907625 88.45347428 C-425.40535679 82.45126378 -425.38648321 76.44913639 -425.38016391 70.44688022 C-425.37412455 64.88223979 -425.35416749 59.31782284 -425.3235023 53.75326526 C-425.31474304 51.72599704 -425.3109951 49.69869967 -425.31276965 47.6714133 C-425.32901591 20.5582236 -425.32901591 20.5582236 -416.12387156 11.25057209 C-409.0889371 4.72501643 -402.03679296 0.90685746 -392.34929538 0.88534439 C-391.67993423 0.88250217 -391.01057309 0.87965995 -390.32092828 0.8767316 C-388.06190158 0.86836231 -385.80292602 0.86711463 -383.54388499 0.8657912 C-381.91428787 0.8612273 -380.28469193 0.85622753 -378.65509737 0.85082763 C-374.16423028 0.83721626 -369.67337079 0.82981942 -365.18248844 0.82340097 C-360.34386895 0.81540961 -355.50526532 0.80170697 -350.66665721 0.78868854 C-342.2771397 0.76690404 -333.8876206 0.7487661 -325.49808955 0.73308361 C-313.35834332 0.71038708 -301.21861456 0.682242 -289.07888313 0.65276433 C-269.37139353 0.60506104 -249.66389675 0.56180925 -229.9563911 0.52132404 C-210.8313853 0.48202623 -191.70638604 0.44060314 -172.5813911 0.39632404 C-171.40441765 0.39359977 -170.2274442 0.39087549 -169.01480488 0.38806867 C-163.10914464 0.37438681 -157.2034845 0.36066564 -151.29782438 0.34692836 C-115.22284175 0.26307256 -79.14785349 0.18206466 -43.07285357 0.10599637 C-40.23220748 0.09999802 -37.39156147 0.09396612 -34.55091548 0.08792675 C-30.16506214 0.07861298 -25.7792086 0.06940569 -21.39335485 0.06029011 C-19.80850343 0.05698534 -18.22365207 0.05365161 -16.63880078 0.05028563 C-15.89672186 0.04871317 -15.15464293 0.04714071 -14.39007676 0.0455206 C-13.32109967 0.04322395 -13.32109967 0.04322395 -12.23052708 0.04088089 C-10.25383584 0.03701462 -8.27714227 0.03440136 -6.30044889 0.03184962 C-4.20027794 0.02703893 -2.10010338 0.01752137 0 0 Z M-395.19027781 34.52400959 C-395.92697703 35.40572834 -395.92697703 35.40572834 -396.67855906 36.30525959 C-398.76903203 39.30137719 -399.00307658 41.92457055 -399.00476146 45.46094501 C-399.00758506 46.38078898 -399.01040866 47.30063295 -399.01331782 48.24835098 C-399.01128982 49.26639596 -399.00926181 50.28444093 -399.00717235 51.33333576 C-399.00889068 52.42123936 -399.01060901 53.50914297 -399.01237941 54.63001335 C-399.01678724 58.3590158 -399.01370555 62.08797502 -399.01059031 65.81697834 C-399.0110994 67.86038548 -399.01237354 69.90379117 -399.01374042 71.94719791 C-399.01985152 81.21062205 -399.01332691 90.47402277 -399.00491214 99.73744333 C-399.00207622 103.02478519 -398.9999132 106.31212736 -398.99773955 109.59946972 C-398.98358759 130.65033378 -398.95397139 151.70116087 -398.91799617 172.75199795 C-398.89407186 186.78659427 -398.8736764 200.82118813 -398.85885692 214.85579669 C-398.85729671 216.32447034 -398.8557359 217.79314399 -398.85417449 219.26181763 C-398.85339426 219.99651722 -398.85261403 220.73121681 -398.85181015 221.48818002 C-398.81744091 253.83948934 -398.76691778 286.19071129 -398.69066119 318.54195106 C-398.68313884 321.75509684 -398.67567174 324.96824274 -398.66824412 328.18138874 C-398.66639957 328.97614431 -398.66455501 329.77089988 -398.66265456 330.58973896 C-398.63492806 342.67169764 -398.61829316 354.75364 -398.60733104 366.83562458 C-398.59469432 380.76170723 -398.56805913 394.68768355 -398.52336538 408.61370182 C-398.49831822 416.55392006 -398.48461434 424.49397908 -398.4863125 432.43423752 C-398.48634658 438.42998953 -398.46551169 444.42547862 -398.43660212 450.4211688 C-398.42808195 452.86665061 -398.42637952 455.31216705 -398.43197727 457.75765729 C-398.43858109 461.08182999 -398.42079261 464.40500084 -398.39675975 467.72907245 C-398.40452013 468.69394887 -398.4122805 469.65882529 -398.42027605 470.65294039 C-398.34803862 476.27222431 -397.68588407 479.59544662 -393.87777781 484.02400959 C-388.4726308 487.94274117 -383.66227365 488.17352444 -377.14677501 488.18222797 C-375.96899696 488.18963547 -375.96899696 488.18963547 -374.76742542 488.19719261 C-372.12753522 488.21258197 -369.48766955 488.22093812 -366.84774852 488.22933185 C-364.94956098 488.23891365 -363.05137554 488.24891848 -361.15319228 488.25931346 C-355.96112226 488.28646668 -350.76904312 488.30744224 -345.57694077 488.32730734 C-340.0659265 488.3493766 -334.55493912 488.37689718 -329.04394603 488.40366352 C-318.42642885 488.45424617 -307.80889519 488.49923655 -297.19134355 488.54191226 C-288.65266117 488.57626008 -280.11398816 488.61240057 -271.5753181 488.64968097 C-166.22680843 489.17037375 -166.22680843 489.17037375 -60.87777781 489.02400959 C-60.03635737 489.01975215 -59.19493693 489.01549472 -58.3280189 489.01110828 C-48.54051949 488.9601154 -38.75376018 488.88524473 -28.96691966 488.75954425 C-26.51569408 488.7283674 -24.06441594 488.70100178 -21.61309886 488.67812335 C-18.46777984 488.64590344 -15.32347492 488.59464967 -12.17855906 488.53572834 C-10.86170619 488.52612834 -10.86170619 488.52612834 -9.51825023 488.51633441 C-3.927582 488.3783084 0.43725707 487.46784919 4.73159719 483.55916584 C8.59246556 478.57441454 10.37688559 475.59659204 10.34927297 469.24568927 C10.3491219 468.08478778 10.34897084 466.92388629 10.3488152 465.72780597 C10.33849263 464.47977191 10.32817006 463.23173786 10.31753469 461.94588459 C10.31470479 460.66417377 10.3118749 459.38246295 10.30895925 458.06191242 C10.30134006 454.6621132 10.28170653 451.26248613 10.25955129 447.8627547 C10.23905576 444.39048835 10.22994962 440.91819405 10.21987844 437.44588459 C10.19845885 430.63852241 10.16434375 423.83127428 10.12222219 417.02400959 C10.78222219 416.69400959 11.44222219 416.36400959 12.12222219 416.02400959 C11.46222219 416.02400959 10.80222219 416.02400959 10.12222219 416.02400959 C10.12260191 415.361436 10.12298163 414.69886242 10.12337285 414.01621085 C10.14590329 374.47338514 10.16298473 334.93056027 10.17328751 295.3877294 C10.17453776 290.6067401 10.17583212 285.82575082 10.17715383 281.04476154 C10.17741614 280.09322004 10.17767845 279.14167854 10.17794871 278.16130245 C10.18226328 262.88895511 10.19012682 247.61661165 10.19937498 232.34426659 C10.20883017 216.59501841 10.21430246 200.84577222 10.21631068 185.09652132 C10.21754253 176.28349246 10.2204738 167.47047174 10.22795224 158.65744579 C10.24205958 141.10603704 10.23800963 123.5550376 10.16643947 106.00374192 C10.13769151 98.85064345 10.11929778 91.69793768 10.13209081 84.54478061 C10.14375642 77.98825274 10.12044886 71.4325488 10.07187474 64.87614155 C10.05988136 62.5085873 10.05964297 60.14093874 10.07224977 57.77338767 C10.08745885 54.56901257 10.05980859 51.36778525 10.02113271 48.16367328 C10.035693 47.243641 10.05025329 46.32360871 10.06525481 45.37569666 C9.92680941 39.1783036 8.21277666 36.05975413 3.91483861 31.61284953 C0.05138041 28.18857168 -2.17901474 27.77330108 -7.24284911 27.76953399 C-7.89453693 27.76632751 -8.54622476 27.76312104 -9.2176607 27.75981739 C-11.4166137 27.75147 -13.61529767 27.75745806 -15.81425548 27.76331317 C-17.40061846 27.76029463 -18.98697999 27.75640665 -20.57333893 27.75172061 C-24.94460801 27.74139327 -29.31579552 27.74363443 -33.68707144 27.7479012 C-38.39679803 27.75035991 -43.10650454 27.74136488 -47.81622386 27.73386371 C-57.04817857 27.72109029 -66.28010423 27.71932635 -75.51206628 27.72166397 C-83.01433117 27.72344453 -90.51658721 27.72170314 -98.01885104 27.71743953 C-99.08522631 27.71684434 -100.15160158 27.71624915 -101.25029125 27.71563593 C-103.41641727 27.71442422 -105.58254328 27.71321008 -107.74866929 27.71199355 C-128.080249 27.7011076 -148.41181214 27.70328536 -168.74339279 27.7093784 C-187.35306598 27.71454716 -205.96268681 27.70329506 -224.57234965 27.68428018 C-243.6674281 27.66491848 -262.76248177 27.65664293 -281.85757011 27.66040343 C-292.58328524 27.66231819 -303.30895582 27.65980138 -314.03466296 27.64568889 C-323.1666919 27.63379527 -332.29864887 27.63234738 -341.43067876 27.64447906 C-346.09162801 27.65038228 -350.7524455 27.65142749 -355.41338611 27.63947666 C-359.67888987 27.62866672 -363.94415109 27.63166263 -368.20964327 27.64573834 C-369.75406453 27.64839884 -371.2985045 27.64597654 -372.84290747 27.63800248 C-374.94062648 27.62792201 -377.03749823 27.63629548 -379.1351831 27.64927948 C-380.88363421 27.64919695 -380.88363421 27.64919695 -382.66740757 27.64911276 C-387.96173736 28.26736775 -391.8428425 30.40964165 -395.19027781 34.52400959 Z " fill="#E35C52" transform="translate(1348.877777814865,262.97599041461945)"/>
<path d="M0 0 C1.39396066 -0.00187019 2.7879208 -0.00417172 4.18188012 -0.00686532 C7.99823716 -0.01296392 11.81457224 -0.01285202 15.63093305 -0.01167095 C19.75236169 -0.01146645 23.87378336 -0.0169903 27.99520874 -0.02172852 C36.06407823 -0.03002465 44.13294041 -0.03278287 52.2018138 -0.03334089 C58.76141661 -0.03381648 65.32101701 -0.03587337 71.88061905 -0.03904152 C90.48678305 -0.04784475 109.09294129 -0.05246134 127.69910739 -0.05171105 C128.70156144 -0.05167109 129.70401548 -0.05163113 130.73684692 -0.05158997 C131.7405276 -0.05154909 132.74420828 -0.0515082 133.77830352 -0.05146609 C150.0472963 -0.05105956 166.31626594 -0.06063156 182.58525203 -0.07472833 C199.29843864 -0.08909552 216.01161396 -0.09599835 232.7248069 -0.09513456 C242.10470375 -0.09480274 251.48457634 -0.09754331 260.86446762 -0.10831261 C268.84963894 -0.11742204 276.83477499 -0.11958916 284.81994925 -0.11280318 C288.89205422 -0.10954042 292.96409152 -0.10947256 297.03619003 -0.11815643 C300.76812169 -0.12603291 304.49993215 -0.12457833 308.23186089 -0.1158723 C310.21239053 -0.11361714 312.19292396 -0.12115688 314.17343891 -0.12911195 C333.21842616 -0.0556579 349.66543317 6.36920552 363.46096802 19.69621277 C373.31830795 29.64190274 382.37035737 44.8249352 382.40768909 59.16596889 C382.41214694 59.96361359 382.41660478 60.76125829 382.42119771 61.58307403 C382.42092117 62.88883639 382.42092117 62.88883639 382.42063904 64.22097778 C382.42431573 65.15035662 382.42799241 66.07973545 382.43178052 67.03727728 C382.44281509 70.15919038 382.44666087 73.28107019 382.45046997 76.40299988 C382.45673494 78.63862717 382.46338177 80.87425343 382.47038269 83.10987854 C382.49142672 90.46026382 382.50178744 97.81064931 382.51174927 105.16105652 C382.51579711 107.69293796 382.51991404 110.2248193 382.52409935 112.75670052 C382.5409705 123.29191602 382.55560357 133.8271304 382.56284809 144.36235714 C382.56475783 147.09514301 382.56667818 149.82792888 382.56863403 152.56071472 C382.56911777 153.23989346 382.56960151 153.9190722 382.57009991 154.61883212 C382.57838943 165.60617601 382.60370774 176.59341064 382.63621471 187.58070689 C382.66935692 198.87536968 382.6869712 210.16997918 382.69049233 221.46469694 C382.69283944 227.8004098 382.70175564 234.13595007 382.72695351 240.47161674 C382.75029857 246.43801363 382.75444144 252.40412509 382.74419212 258.37055588 C382.74369817 260.55334868 382.74997681 262.73615584 382.76374817 264.91890526 C382.83182296 276.35415806 382.73649094 286.42723173 378.27346802 297.13371277 C377.99319921 297.83462005 377.71293039 298.53552732 377.42416859 299.25767422 C369.67468496 317.43852605 356.03326961 330.30903156 338.25484371 338.5294733 C328.19983828 342.54039551 319.35137816 342.76750012 308.66433716 342.57096863 C306.83443399 342.55646765 305.00451008 342.54441258 303.17457581 342.53459167 C299.26109023 342.50966697 295.34813028 342.47014719 291.43489265 342.41964531 C285.23376516 342.34222223 279.0329817 342.31348929 272.83143616 342.29376221 C255.20642851 342.23150129 237.58229815 342.12468227 219.95828247 341.92497253 C210.2032634 341.81484336 200.44926039 341.75532107 190.69360632 341.75079256 C184.54073706 341.74519235 178.39262491 341.67874089 172.24083531 341.56601036 C168.39923008 341.51070318 164.55932654 341.51491815 160.71744728 341.53527069 C158.95133296 341.53307431 157.18504603 341.50729366 155.41971207 341.45475197 C146.26316671 341.19577943 139.93198654 341.78897723 132.87094253 348.02844578 C130.39867019 350.42646366 128.04408137 352.89875429 125.75672138 355.47332966 C123.79686996 357.66722604 121.70272505 359.70923041 119.58987427 361.75480652 C118.33574393 363.0241538 117.08427929 364.29614242 115.83596802 365.57121277 C112.17269505 369.3096298 108.51280848 372.97476699 104.53128052 376.37590027 C98.91884623 381.21411168 93.78693407 386.55062422 88.58596802 391.82121277 C86.56420424 393.86975909 84.53900945 395.91482596 82.51174927 397.95793152 C81.6252771 398.85600525 80.73880493 399.75407898 79.82546997 400.67936707 C77.27346802 403.13371277 77.27346802 403.13371277 74.75857544 405.1446991 C72.05427875 407.30914601 69.68929308 409.6529092 67.27346802 412.13371277 C66.49076538 412.92688904 65.70806274 413.72006531 64.90164185 414.53727722 C64.10266479 415.34898376 63.30368774 416.16069031 62.48049927 416.99699402 C60.68245611 418.81353284 58.88427521 420.62993534 57.08596802 422.44621277 C55.71408325 423.84323425 55.71408325 423.84323425 54.31448364 425.26847839 C53.4411438 426.14826355 52.56780396 427.02804871 51.66799927 427.93449402 C50.87240601 428.74056091 50.07681274 429.54662781 49.2571106 430.37712097 C47.27346802 432.13371277 47.27346802 432.13371277 45.27346802 432.13371277 C45.27346802 432.79371277 45.27346802 433.45371277 45.27346802 434.13371277 C39.16213968 438.68167804 34.95786865 440.70280855 27.41799927 439.60246277 C22.89773518 438.6144269 20.80915767 436.83308537 18.02346802 433.19621277 C15.12218565 428.11896863 15.13305506 423.73526546 15.15994263 417.96867371 C15.1597966 417.14878967 15.15965057 416.32890564 15.15950012 415.48417664 C15.16019584 412.77878661 15.1679723 410.07346574 15.17581177 407.36808777 C15.17767716 405.49050433 15.17910049 403.6129204 15.18009949 401.7353363 C15.18391513 396.79682569 15.19373731 391.85834456 15.20480347 386.91984558 C15.21503805 381.87915953 15.2196015 376.83846872 15.22463989 371.79777527 C15.23536041 361.9097415 15.25242542 352.02172958 15.27346802 342.13371277 C14.51316284 342.1441864 13.75285767 342.15466003 12.96951294 342.16545105 C9.46669936 342.20747098 5.9639391 342.23318357 2.46096802 342.25871277 C1.26536255 342.27547058 0.06975708 342.29222839 -1.16207886 342.30949402 C-17.86392146 342.40051223 -32.52923688 338.75173196 -45.72653198 328.13371277 C-46.97563354 327.14757996 -46.97563354 327.14757996 -48.24996948 326.14152527 C-61.28408069 315.19287185 -69.86116739 299.90663015 -72.72653198 283.13371277 C-72.98613376 279.96803024 -73.00573306 276.82359056 -72.99395752 273.64845276 C-72.99848863 272.73663069 -73.00301975 271.82480863 -73.00768816 270.88535559 C-73.02027289 267.85269156 -73.01871563 264.82020849 -73.01705933 261.78752136 C-73.02304836 259.6036608 -73.02985477 257.41980235 -73.03741455 255.23594666 C-73.05504564 249.31829442 -73.05976878 243.40070008 -73.06104612 237.48302412 C-73.06247016 233.7803853 -73.0667446 230.07776107 -73.07204056 226.37512589 C-73.09148727 212.77439315 -73.09857233 199.17370584 -73.09688969 185.57296021 C-73.0960273 174.21122416 -73.11877683 162.84966027 -73.14862478 151.48796594 C-73.174836 141.13943181 -73.18550268 130.79095618 -73.18422663 120.44238913 C-73.18371833 114.2710161 -73.18932811 108.09980276 -73.21058273 101.92846298 C-73.23004621 96.11874586 -73.23003421 90.30933942 -73.21554947 84.4996109 C-73.21347017 82.37732358 -73.21810929 80.2550164 -73.23027039 78.13276291 C-73.3587763 54.13677052 -67.87749903 35.90585734 -51.10153198 18.07121277 C-36.14377296 3.47661634 -20.07959994 -0.02419837 0 0 Z M-31.72653198 31.13371277 C-32.29114136 31.55910339 -32.85575073 31.98449402 -33.43746948 32.42277527 C-42.71677626 39.72375268 -47.55804502 49.62284741 -49.72653198 61.13371277 C-49.9917233 64.23437076 -50.00138467 67.31454197 -49.98722839 70.42520142 C-49.99296671 71.77962698 -49.99296671 71.77962698 -49.99882096 73.16141468 C-50.00909252 76.16973766 -50.00516996 79.17786769 -50.00119019 82.186203 C-50.00553986 84.35009436 -50.01072386 86.51398417 -50.01667786 88.6778717 C-50.0300508 94.54353508 -50.03064847 100.40913395 -50.02811456 106.2748096 C-50.0270438 111.17543526 -50.03193084 116.07604793 -50.03671998 120.9766708 C-50.04780903 132.53920057 -50.04825579 144.10169784 -50.04220581 155.66423035 C-50.0361642 167.58509358 -50.04848324 179.50583883 -50.06977588 191.42668194 C-50.08739781 201.66979424 -50.09339234 211.91286901 -50.09013814 222.15599591 C-50.08832626 228.27015172 -50.09095211 234.38422334 -50.10485268 240.4983654 C-50.11743611 246.24809637 -50.11548187 251.9976435 -50.10244179 257.74737167 C-50.10007769 259.85443624 -50.10280469 261.96151376 -50.11106491 264.06856346 C-50.12154795 266.95100143 -50.11341908 269.83282425 -50.10075378 272.71524048 C-50.10812807 273.54346752 -50.11550235 274.37169456 -50.1231001 275.2250194 C-50.00591477 287.95436544 -43.85074465 298.63893021 -35.32028198 307.76652527 C-26.23653532 316.05681213 -16.18594372 319.39184957 -4.13278198 319.47746277 C-2.94634094 319.49939697 -2.94634094 319.49939697 -1.7359314 319.52177429 C0.76715151 319.56783724 3.27016136 319.60228242 5.77346802 319.63371277 C9.07583018 319.67517569 12.377666 319.72891643 15.67971802 319.78996277 C16.42266113 319.79523987 17.16560425 319.80051697 17.93106079 319.80595398 C23.99484441 319.91982303 30.29589533 320.10543309 34.71096802 324.63371277 C37.30174085 328.7789493 37.41085704 331.72753842 37.38699341 336.5209198 C37.38713943 337.28199036 37.38728546 338.04306091 37.38743591 338.82719421 C37.38673795 341.34866666 37.37895096 343.87006569 37.37112427 346.39152527 C37.36925968 348.13744567 37.36783597 349.8833666 37.36683655 351.62928772 C37.36301461 356.22916605 37.35318707 360.82901291 37.34213257 365.42887878 C37.33191151 370.12085036 37.32733744 374.81282702 37.32229614 379.50480652 C37.31156452 388.71445578 37.29449196 397.92408166 37.27346802 407.13371277 C46.78902048 405.12387705 54.78684696 393.72252271 61.39846802 387.00871277 C63.0860499 385.29528737 64.77611885 383.58430763 66.46878052 381.87590027 C67.56730347 380.75997498 67.56730347 380.75997498 68.6880188 379.62150574 C70.7777843 377.61067378 72.89763655 375.70906078 75.09133911 373.81584167 C79.24367375 370.20976003 83.12933971 366.38924728 86.99221802 362.47746277 C87.69439453 361.77149963 88.39657104 361.0655365 89.12002563 360.33818054 C91.34031405 358.10579919 93.55730756 355.87019165 95.77346802 353.63371277 C98.69756281 350.68280899 101.62509858 347.73538074 104.55471802 344.78996277 C105.21016602 344.12621643 105.86561401 343.46247009 106.54092407 342.77861023 C110.40546777 338.89393998 114.38343496 335.20502106 118.53657532 331.63002014 C121.51441557 329.06465481 124.39603771 326.39125064 127.29299927 323.73527527 C131.00903399 320.73019788 134.47243738 321.00122977 139.08085632 320.98222351 C140.1253328 320.97587489 140.1253328 320.97587489 141.1909098 320.96939802 C143.53036169 320.95635555 145.86977946 320.95034311 148.20925903 320.94425964 C149.88491016 320.93631749 151.56055922 320.92792956 153.23620605 320.91912842 C156.85059066 320.90105253 160.46497065 320.88604248 164.07937813 320.87335205 C169.81003318 320.8531062 175.54063779 320.82544924 181.27125549 320.79667664 C193.45946914 320.73654379 205.64771391 320.68486097 217.83596802 320.63371277 C230.9437278 320.57853493 244.05147199 320.5216536 257.15918487 320.45616388 C262.83842752 320.42805933 268.51766525 320.40437453 274.19694149 320.3842392 C277.75963024 320.37068611 281.32229325 320.35328365 284.88496017 320.33492851 C286.51736601 320.32728404 288.14977997 320.32116752 289.78219795 320.3168354 C298.17011112 320.29374158 306.54291573 320.14935437 314.92201233 319.74687195 C315.64884517 319.71674027 316.37567802 319.68660859 317.1245361 319.65556383 C329.53106533 318.98181618 338.79005792 314.19624865 347.27346802 305.13371277 C347.86901489 304.52140808 348.46456177 303.90910339 349.07815552 303.27824402 C357.33794502 294.29931861 360.75622951 282.70059377 360.64768982 270.67764282 C360.65166423 269.7811507 360.65563863 268.88465858 360.65973347 267.96100003 C360.66928251 264.98642232 360.65758344 262.01232911 360.64578247 259.0377655 C360.64821286 256.89328332 360.65193457 254.74880228 360.65684509 252.60432434 C360.66622328 246.80071736 360.65685472 240.99727994 360.64351296 235.19368625 C360.63216738 229.11071175 360.63630834 223.02774522 360.63825989 216.94476318 C360.63914181 206.73208355 360.62808312 196.51947044 360.60964966 186.30680847 C360.58847798 174.50975426 360.58497401 162.7127974 360.59121162 150.91572803 C360.59691157 139.55249973 360.59125251 128.18930561 360.58003807 116.82608223 C360.57540105 111.99656096 360.57451435 107.16706065 360.57662392 102.33753777 C360.57851131 96.64853951 360.57036818 90.95963997 360.55456352 85.27066422 C360.5503311 83.18617855 360.54946309 81.10168284 360.55225372 79.01719475 C360.55549141 76.16562219 360.54635386 73.31434163 360.53416443 70.46279907 C360.53794375 69.64371817 360.54172308 68.82463726 360.54561692 67.98073572 C360.44734776 54.92889261 356.12280674 44.86535078 347.14846802 35.32121277 C334.94212317 23.72766949 321.83185602 21.8238816 305.62359619 21.87301636 C304.26233171 21.86999072 302.90106892 21.86609917 301.53980911 21.86142379 C297.82302094 21.85118824 294.10632971 21.8533142 290.38953376 21.85760438 C286.37170876 21.86007971 282.35390662 21.85104747 278.33609009 21.84356689 C270.47402939 21.83084037 262.61200288 21.82902364 254.74993362 21.83136716 C248.35725042 21.83315272 241.96457756 21.83139557 235.5718956 21.82714272 C234.20532115 21.82624993 234.20532115 21.82624993 232.81113913 21.82533911 C230.96013324 21.82412732 229.10912736 21.82291318 227.25812148 21.82169674 C209.91310901 21.81082914 192.568116 21.81298003 175.22310244 21.81908158 C159.36943104 21.82425038 143.51582109 21.81299487 127.66216184 21.79398336 C111.36700268 21.77459284 95.07187258 21.76635107 78.77670181 21.77010661 C69.6348575 21.77201677 60.49306549 21.76954916 51.35123062 21.75539207 C43.5688998 21.74346185 35.78665349 21.74209181 28.00432147 21.75418224 C24.03723842 21.76005933 20.0703098 21.76120291 16.10323715 21.74917984 C12.46497821 21.73828184 8.82700192 21.74147044 5.18875597 21.75544152 C3.26348177 21.75931748 1.33819482 21.74857346 -0.58704937 21.73714465 C-12.49381026 21.81065664 -22.25188866 23.69743892 -31.72653198 31.13371277 Z " fill="#56BE98" transform="translate(234.72653198242188,287.8662872314453)"/>
<path d="M0 0 C1.10022218 -0.00412327 2.20044436 -0.00824653 3.33400661 -0.01249474 C7.01034625 -0.02140454 10.68596882 -0.00178421 14.36225891 0.01777649 C17.00242832 0.01726755 19.64255296 0.01517898 22.28271484 0.01113892 C28.70432821 0.0049235 35.1257255 0.01987959 41.54729738 0.04186454 C49.03531917 0.06660993 56.52330196 0.06947171 64.0113586 0.0712683 C77.38130202 0.07514264 90.75114853 0.0975909 104.12104797 0.13105774 C117.07320052 0.16345215 130.02530199 0.18472984 142.97749329 0.19258118 C143.77453006 0.19306667 144.57156684 0.19355216 145.39275625 0.19405236 C148.59723138 0.19598143 151.80170653 0.19789355 155.0061817 0.19976847 C168.12241183 0.20777657 181.2386319 0.22503617 194.35485101 0.24340463 C197.33645857 0.24754033 200.31806622 0.25126359 203.29967475 0.25462699 C211.14034157 0.26358075 218.9809841 0.27546285 226.82162967 0.29619303 C230.06170011 0.3047306 233.30175145 0.31132984 236.54183197 0.31470871 C240.06640949 0.31872737 243.59091923 0.32888082 247.11547852 0.34057617 C248.12271066 0.34039181 249.1299428 0.34020745 250.16769713 0.3400175 C255.39037594 0.36423246 260.60200172 0.5140091 265.8172121 0.79772663 C267.38631272 0.87948343 267.38631272 0.87948343 268.98711234 0.96289188 C273.79030985 1.83578269 277.07364947 4.56852 279.87519836 8.48774719 C281.56250514 12.77347325 282.14480554 16.41646319 282.21333313 21.00874329 C282.23577591 22.28381744 282.25821869 23.5588916 282.28134155 24.87260437 C282.29435765 26.25211982 282.30608006 27.63164799 282.31660461 29.01118469 C282.32350752 29.71281361 282.33041042 30.41444252 282.33752251 31.13733292 C282.37324615 34.84886621 282.39684514 38.56024973 282.41059875 42.27192688 C282.42715412 46.0876844 282.48561631 49.90159108 282.55374241 53.7167263 C282.5986868 56.66803611 282.61210444 59.61890733 282.61721611 62.57052994 C282.6250693 63.97632441 282.6445912 65.38210771 282.67643929 66.78756332 C282.93709139 79.0992636 282.93709139 79.0992636 278.57807922 84.2870636 C274.70614437 88.08999742 271.39913834 89.73481949 265.95160961 89.75060272 C264.95519457 89.75828501 263.95877953 89.7659673 262.93217009 89.77388239 C261.83967603 89.77214942 260.74718197 89.77041646 259.62158203 89.76863098 C258.45929087 89.77457323 257.29699971 89.78051547 256.0994876 89.78663778 C252.87255657 89.80099641 249.64575527 89.80635624 246.41879714 89.80783272 C242.93878586 89.81153588 239.45882067 89.82663152 235.97883606 89.84010315 C228.36934789 89.86726156 220.75988081 89.87931769 213.15035224 89.88812447 C208.39902598 89.89365026 203.64770786 89.9021251 198.8963871 89.91113281 C185.74133026 89.93551622 172.58627993 89.95611579 159.43120098 89.962883 C158.58933319 89.96332213 157.7474654 89.96376126 156.88008647 89.9642137 C155.61426713 89.96486853 155.61426713 89.96486853 154.32287568 89.96553659 C152.61285889 89.96642353 150.9028421 89.96731665 149.19282532 89.96821594 C148.34459829 89.9686588 147.49637126 89.96910166 146.62244038 89.96955794 C132.87625717 89.97745502 119.13028593 90.01236712 105.38418462 90.05893499 C91.27129085 90.1063596 77.15850346 90.13128655 63.04552871 90.13361883 C55.12153027 90.13545242 47.19780808 90.14695874 39.27388573 90.18325806 C32.52691049 90.21405697 25.78029689 90.22430326 19.03326472 90.20778185 C15.59116922 90.19996733 12.14980199 90.20183171 8.7077961 90.22989655 C4.97448931 90.25522115 1.24305808 90.24364743 -2.49023438 90.22273254 C-3.57603627 90.23884535 -4.66183817 90.25495816 -5.78054315 90.27155924 C-11.90545374 90.19117551 -15.39523828 89.42809501 -19.81564283 85.06324899 C-23.5926899 80.51777717 -24.5003063 76.6254651 -24.49711609 70.81147766 C-24.50334488 69.50347198 -24.50957367 68.19546631 -24.51599121 66.8478241 C-24.50730417 65.43352371 -24.4979863 64.01922708 -24.48808289 62.60493469 C-24.48756372 61.14335633 -24.4880836 59.68177726 -24.48959351 58.22019958 C-24.48950405 55.16555786 -24.47912611 52.1111815 -24.46098328 49.05659485 C-24.43825657 45.14474856 -24.43776204 41.23328818 -24.44450092 37.32139397 C-24.44784412 34.30677367 -24.4412049 31.29224112 -24.43137169 28.27763748 C-24.42752846 26.83516524 -24.42636783 25.39268324 -24.42795753 23.95020676 C-24.42832898 21.93519137 -24.41421487 19.92018906 -24.39945984 17.90522766 C-24.39485245 16.75972443 -24.39024506 15.61422119 -24.38549805 14.43400574 C-24.13244859 11.57416918 -23.61300134 9.90880096 -22.12480164 7.48774719 C-21.46480164 7.48774719 -20.80480164 7.48774719 -20.12480164 7.48774719 C-19.79480164 6.49774719 -19.46480164 5.50774719 -19.12480164 4.48774719 C-12.70247761 0.37363017 -7.50496474 -0.08083755 0 0 Z " fill="#E35B52" transform="translate(1026.1248016357422,622.5122528076172)"/>
<path d="M0 0 C1.15756805 -0.010242 2.31513611 -0.02048401 3.50778198 -0.03103638 C4.53226944 -0.04243149 5.5567569 -0.0538266 6.61228943 -0.06556702 C12.03094221 0.16737207 15.06763718 2.01314533 19.25558472 5.48825073 C22.16693095 9.31239528 21.83449363 13.51953542 21.78683472 18.14840698 C21.08774508 22.47693697 19.49153436 25.16273479 16.00558472 27.80075073 C11.36759318 29.9579561 6.60489364 30.17530796 1.5451355 30.256073 C0.42760895 30.27601822 -0.6899176 30.29596344 -1.84130859 30.31651306 C-3.64572922 30.3415818 -3.64572922 30.3415818 -5.48660278 30.36715698 C-6.75617828 30.38793808 -8.02575378 30.40871918 -9.33380127 30.43013 C-12.03544356 30.47338013 -14.73704425 30.51490802 -17.43875122 30.55343628 C-21.45220495 30.61078995 -25.46548282 30.67727134 -29.47879028 30.74411011 C-63.25114715 31.28375697 -97.0075592 30.96933574 -130.78009033 30.6237793 C-175.19293493 30.15498775 -175.19293493 30.15498775 -219.60769653 30.05465698 C-220.96433348 30.05728357 -220.96433348 30.05728357 -222.34837723 30.05996323 C-230.72567464 30.07678089 -239.10275792 30.10293683 -247.47987843 30.1609354 C-250.44575664 30.17985769 -253.411633 30.19127718 -256.37755394 30.20106316 C-258.36401086 30.21056354 -260.35040632 30.23098499 -262.33677673 30.2518158 C-263.50713974 30.25515427 -264.67750275 30.25849274 -265.8833313 30.26193237 C-266.89057755 30.2693898 -267.89782379 30.27684723 -268.93559265 30.28453064 C-271.86118964 30.03549006 -274.02812364 29.27585306 -276.68191528 28.05075073 C-276.68191528 27.39075073 -276.68191528 26.73075073 -276.68191528 26.05075073 C-277.28004028 25.82387573 -277.87816528 25.59700073 -278.49441528 25.36325073 C-281.48235264 23.57048832 -282.33189002 22.29081137 -283.68191528 19.05075073 C-284.316008 14.92225573 -284.67708005 10.91525484 -282.66238403 7.14059448 C-280.23279632 4.15315582 -277.54970251 1.2740481 -273.60006523 0.80186176 C-272.79328394 0.80240653 -271.98650265 0.8029513 -271.15527344 0.80351257 C-270.22594498 0.79931808 -269.29661652 0.7951236 -268.33912659 0.790802 C-266.81086998 0.79923126 -266.81086998 0.79923126 -265.2517395 0.80783081 C-263.63811775 0.80498329 -263.63811775 0.80498329 -261.99189758 0.80207825 C-258.40672672 0.79835346 -254.82175598 0.8091244 -251.23660278 0.82028198 C-248.71594262 0.82147619 -246.19528201 0.82192644 -243.67462158 0.82167053 C-238.35638478 0.82323989 -233.03821634 0.83129741 -227.72000122 0.84494019 C-221.03138852 0.86204223 -214.34283613 0.8656843 -207.65419865 0.86510849 C-182.07459128 0.86572994 -156.50368023 0.90215689 -130.9354248 1.73747253 C-119.77441171 2.09039742 -108.65629485 1.97235871 -97.49441528 1.67575073 C-96.42753983 1.64859482 -95.36066437 1.6214389 -94.26145935 1.59346008 C-91.71917017 1.52505433 -89.17712819 1.45043723 -86.63504028 1.37496948 C-70.79738335 0.93549794 -54.95515555 0.74009198 -39.11324692 0.52120209 C-36.7635387 0.48851675 -34.41384211 0.45509702 -32.06414795 0.42141724 C-28.32092405 0.36778668 -24.57768691 0.31521967 -20.83443451 0.26361656 C-19.44988431 0.24447546 -18.06533722 0.22510748 -16.68079376 0.20548439 C-11.12062157 0.12722839 -5.56017804 0.0766403 0 0 Z " fill="#E35C52" transform="translate(1284.6819152832031,452.9492492675781)"/>
<path d="M0 0 C4.71424898 -0.03620524 9.4285631 -0.0625165 14.14288014 -0.08814883 C17.64185229 -0.10820197 21.14042327 -0.13540816 24.63916218 -0.18105364 C28.3259822 -0.22648787 32.01219967 -0.24822626 35.69924557 -0.26422167 C37.25769287 -0.29399221 37.25769287 -0.29399221 38.84762394 -0.32436419 C45.99000124 -0.32069857 51.56172001 0.99637499 56.86794674 5.98675489 C59.12583897 10.69069703 58.58377603 16.07935451 57.89919674 21.13519239 C56.08690671 24.89170163 53.34837493 26.83574027 49.89919674 29.13519239 C47.6879915 29.38704139 47.6879915 29.38704139 45.05180371 29.38966799 C44.04692953 29.39550018 43.04205535 29.40133237 42.00673044 29.4073413 C40.89965069 29.40356198 39.79257094 29.39978265 38.65194333 29.39588881 C37.47825593 29.39971435 36.30456854 29.4035399 35.09531486 29.40748137 C31.83190762 29.41603422 28.56864338 29.41557025 25.30523217 29.41130078 C21.78772357 29.40884011 18.27024176 29.41783962 14.75274289 29.42533827 C7.85861712 29.43810687 0.96453026 29.43987618 -5.92960533 29.43753801 C-11.53350241 29.43575667 -17.13738764 29.43750052 -22.7412833 29.44176245 C-23.5381598 29.44235764 -24.33503631 29.44295283 -25.15606059 29.44356605 C-26.77483187 29.44477778 -28.39360315 29.44599191 -30.01237443 29.44720843 C-45.2045103 29.45809282 -60.39662399 29.45591754 -75.58876112 29.44982358 C-89.48690132 29.44465669 -103.38497139 29.45590223 -117.28309771 29.4749218 C-131.54963969 29.49429596 -145.81614849 29.50255675 -160.08270371 29.49879855 C-168.09381356 29.49688547 -176.10486374 29.49938422 -184.11596286 29.51351309 C-190.93791795 29.52542268 -197.75977668 29.52683674 -204.58173308 29.51472292 C-208.06209172 29.5088305 -211.54227409 29.50774455 -215.02262104 29.51972532 C-218.79711669 29.53014724 -222.57113693 29.52212795 -226.34561527 29.5094142 C-227.99285056 29.52047562 -227.99285056 29.52047562 -229.67336333 29.53176051 C-236.35256326 29.48435216 -241.94066025 29.13410362 -247.01486576 24.31878614 C-248.42359322 21.48612913 -248.49968124 19.35356631 -248.47580326 16.19769239 C-248.48353763 15.17804396 -248.49127201 14.15839552 -248.49924076 13.10784864 C-247.90005707 8.63746836 -246.14433385 6.19787885 -243.02318466 3.01943541 C-239.20325925 0.55648935 -235.95297368 0.57355143 -231.55363834 0.61621046 C-230.69346849 0.60870921 -229.83329863 0.60120796 -228.94706303 0.59347939 C-226.06227411 0.57317311 -223.17826931 0.58131265 -220.29343021 0.58929396 C-218.22245877 0.58055633 -216.15149409 0.57006988 -214.08053958 0.55796766 C-208.43396907 0.52999247 -202.78761729 0.52670697 -197.14098752 0.52768755 C-191.16735435 0.5245423 -185.19381689 0.49885573 -179.2202338 0.47570753 C-167.82779648 0.43501174 -156.43541611 0.41479789 -145.04291731 0.40173364 C-132.34636985 0.38617513 -119.64992836 0.34769386 -106.95343983 0.30721331 C-91.04180915 0.25670065 -75.13021586 0.21115689 -59.21850955 0.1943965 C-58.04250993 0.19315354 -56.8665103 0.19191058 -55.65487432 0.19062996 C-51.0105342 0.18586316 -46.36619401 0.18122139 -41.72185338 0.17697954 C-27.81401314 0.16333307 -13.90739145 0.11233493 0 0 Z " fill="#E35C52" transform="translate(1249.1008032560349,372.8648076057434)"/>
<path d="M0 0 C2.42351757 -0.00071869 4.84702975 -0.00286776 7.27054596 -0.00549722 C15.74432476 -0.01467863 24.21808803 -0.01883964 32.69187164 -0.01804566 C40.56807481 -0.01744089 48.4442104 -0.02808881 56.32039642 -0.04378933 C63.11914642 -0.05685572 69.9178742 -0.06223022 76.71663666 -0.06159025 C80.76248329 -0.0613358 84.80826909 -0.06416069 88.85410309 -0.0747683 C92.6431366 -0.08443862 96.43205072 -0.08453594 100.22108841 -0.07725167 C101.60903218 -0.0762058 102.99698339 -0.07856888 104.3849144 -0.08461213 C106.2803499 -0.09233151 108.17582612 -0.08648811 110.07126617 -0.07998109 C111.13078491 -0.08052586 112.19030365 -0.08107062 113.28192902 -0.0816319 C117.28946455 0.26615354 120.12218697 1.40382837 123.33737946 3.79225707 C126.68549858 8.17944765 127.43649454 13.03614274 127.02487946 18.41725707 C126.10603191 22.35517511 125.38203597 23.81659779 122.14987946 26.16725707 C121.48987946 26.16725707 120.82987946 26.16725707 120.14987946 26.16725707 C120.14987946 26.82725707 120.14987946 27.48725707 120.14987946 28.16725707 C116.54944163 29.28126668 113.16275942 29.31631947 109.40723419 29.35239196 C108.3916532 29.36403232 108.3916532 29.36403232 107.35555542 29.37590784 C105.08796214 29.4006218 102.82036965 29.41836617 100.55271149 29.4360559 C98.92640579 29.45218551 97.30010372 29.4686843 95.67380524 29.48552489 C90.33515404 29.53887765 84.99643902 29.5818291 79.65769196 29.62428832 C77.81905697 29.63948896 75.98042248 29.65474987 74.14178848 29.67007041 C65.50594324 29.74139007 56.87007703 29.80790998 48.23415101 29.86865956 C38.26590552 29.9389545 28.29798371 30.02587168 18.3300029 30.12684208 C10.62381889 30.20381761 2.91760598 30.26532869 -4.78880036 30.31524843 C-9.39118834 30.3454411 -13.99329386 30.38232654 -18.59547806 30.43554664 C-22.92433226 30.48522705 -27.25290217 30.51573458 -31.58200836 30.53157973 C-33.16952944 30.54069565 -34.75702838 30.55670422 -36.34440231 30.58016181 C-38.51447058 30.61117039 -40.68324981 30.61716711 -42.853508 30.6170404 C-44.06692305 30.62680309 -45.2803381 30.63656579 -46.5305233 30.64662433 C-51.95825541 29.86283134 -54.96617221 27.33034699 -58.22512054 23.04225707 C-60.51043935 18.57724344 -60.66463178 14.06238897 -59.85012054 9.16725707 C-57.85354927 5.31180909 -56.45304417 3.56920615 -52.85012054 1.16725707 C-49.97310119 0.84838695 -47.19023467 0.6558918 -44.30324554 0.55275512 C-43.38915924 0.51522722 -42.47507294 0.47769933 -41.53328705 0.43903422 C-27.69671066 -0.06111911 -13.84377275 0.00231247 0 0 Z " fill="#E35C52" transform="translate(1061.8501205444336,533.8327429294586)"/>
<path d="M0 0 C5.49662448 3.96568545 9.21986764 8.56454901 12.453125 14.4921875 C12.7934375 15.10578125 13.13375 15.719375 13.484375 16.3515625 C17.35475371 24.73738303 16.42067885 34.72806773 13.515625 43.2421875 C9.82646844 51.77727005 4.02128423 59.18944825 -4.73046875 62.8203125 C-5.32988281 63.04203125 -5.92929687 63.26375 -6.546875 63.4921875 C-7.454375 63.9046875 -8.361875 64.3171875 -9.296875 64.7421875 C-18.99343321 66.97985478 -28.81688122 65.89240359 -37.390625 60.8046875 C-39.88601346 59.12240314 -42.2905563 57.4844689 -44.546875 55.4921875 C-44.546875 54.8321875 -44.546875 54.1721875 -44.546875 53.4921875 C-45.206875 53.4921875 -45.866875 53.4921875 -46.546875 53.4921875 C-48.01953125 51.48046875 -48.01953125 51.48046875 -49.609375 48.8046875 C-50.13660156 47.93457031 -50.66382813 47.06445312 -51.20703125 46.16796875 C-55.3139068 37.96619104 -55.05562846 25.57518348 -52.48828125 16.92578125 C-47.55241126 6.45210592 -40.26767374 -0.25960484 -29.546875 -4.5078125 C-19.51815394 -7.5874985 -8.85836294 -5.24436824 0 0 Z " fill="#56BE98" transform="translate(410.546875,429.5078125)"/>
<path d="M0 0 C9.25987751 6.79873532 14.91283365 14.25138709 16.71484375 25.67578125 C17.83437887 34.80075928 16.00167145 43.30583404 11.01171875 51.109375 C5.10571963 58.65762949 -0.76552917 63.3681186 -10 66 C-19.82808154 66.96035822 -29.05525776 66.04363629 -37.25 60.25 C-44.56978018 54.22627748 -50.94813064 46.70498979 -52.27490234 36.98632812 C-52.961343 28.48753901 -52.81064991 20.32055422 -48 13 C-47.56429688 12.30648438 -47.12859375 11.61296875 -46.6796875 10.8984375 C-41.69456646 3.62506417 -35.43664947 -1.31762237 -26.8359375 -3.52734375 C-17.47198539 -5.08800243 -8.26318455 -5.04746248 0 0 Z " fill="#56BF98" transform="translate(304,430)"/>
<path d="M0 0 C8.80206512 7.07992194 13.99616234 14.57035874 15.28515625 25.92578125 C15.72699691 37.01711464 13.20917459 45.64981205 6.125 54.25 C-0.59088149 61.25842936 -7.86600263 64.36285694 -17.42041016 64.65600586 C-25.54746614 64.76300629 -31.5825731 64.6443739 -38.125 59.3125 C-38.81722656 58.8278125 -39.50945312 58.343125 -40.22265625 57.84375 C-46.92484551 52.73254773 -51.65215984 44.65859427 -53.125 36.3125 C-53.89928642 23.86989733 -52.46956497 14.88873507 -44.125 5.3125 C-30.72635511 -7.73238529 -16.19447684 -8.74501749 0 0 Z " fill="#56BE98" transform="translate(514.125,429.6875)"/>
<path d="M0 0 C0.99 0.33 1.98 0.66 3 1 C0.36 2.98 -2.28 4.96 -5 7 C-5 6.01 -5 5.02 -5 4 C-2.6875 1.75 -2.6875 1.75 0 0 Z " fill="#52B892" transform="translate(267,431)"/>
</svg>
